<?xml version="1.0" encoding="utf-8"?>
<!-- Generator: Adobe Illustrator 24.3.0, SVG Export Plug-In . SVG Version: 6.00 Build 0)  -->
<svg version="1.1" id="Layer_1" xmlns="http://www.w3.org/2000/svg" xmlns:xlink="http://www.w3.org/1999/xlink" x="0px" y="0px"
	 viewBox="0 0 62 62" style="enable-background:new 0 0 62 62;" xml:space="preserve">
<style type="text/css">
	.st0{fill:#CF4646;}
	.st1{fill:#E8EEF4;}
	.st2{fill:#B83E3E;}
	.st3{fill:#FFFFFF;}
</style>
<g>
	<g>
		<g>
			<path class="st0" d="M39.7,18.1c-1.4,0-2.5-1.1-2.5-2.5V0H12.9C9.5,0,6.7,2.8,6.7,6.2v49.6c0,3.4,2.8,6.2,6.2,6.2h36.2
				c3.4,0,6.2-2.8,6.2-6.2V18.1H39.7z"/>
		</g>
		<path class="st1" d="M39.5,18.1h15.8L37.2,0v15.8C37.3,17,38.3,18,39.5,18.1z"/>
		<polygon class="st2" points="55.3,30.9 55.3,18.2 39.6,18.2 		"/>
	</g>
	<g>
		<path class="st3" d="M16.8,48.5c0.9,0,1.5,0.7,1.5,1.6c0,0.9-0.6,1.5-1.5,1.5c-0.9,0-1.5-0.7-1.5-1.5
			C15.3,49.2,15.9,48.5,16.8,48.5z"/>
		<path class="st3" d="M24.2,42.9c1,0,1.9,0.4,2.4,1l-1.1,1.5c-0.4-0.3-0.8-0.5-1.2-0.5c-1.2,0-1.9,0.9-1.9,2.4s0.8,2.4,1.9,2.4
			c0.6,0,1.1-0.3,1.5-0.6l1,1.6c-0.8,0.7-1.9,1-2.8,1c-2.3,0-4.1-1.6-4.1-4.3C19.9,44.5,21.9,42.9,24.2,42.9z"/>
		<path class="st3" d="M28.5,48.9c0.8,0.6,1.4,0.9,2.1,0.9c0.7,0,1.1-0.3,1.1-0.7c0-0.6-0.8-0.8-1.7-1.1c-1-0.4-2.2-1.1-2.2-2.4
			c0-1.5,1.3-2.6,3.2-2.6c1.3,0,2.2,0.5,2.9,1.1l-1.1,1.5c-0.6-0.4-1.2-0.7-1.8-0.7c-0.6,0-0.9,0.2-0.9,0.7c0,0.5,0.8,0.7,1.6,1.1
			c1.1,0.4,2.2,1,2.2,2.5c0,1.5-1.2,2.7-3.4,2.7c-1.1,0-2.3-0.5-3.2-1.2L28.5,48.9z"/>
		<path class="st3" d="M34.6,43.1h2.5l1.1,3.9c0.2,0.8,0.4,1.7,0.7,2.6h0.1c0.2-0.9,0.4-1.7,0.6-2.6l1.1-3.9H43l-2.7,8.3h-2.8
			L34.6,43.1z"/>
	</g>
</g>
</svg>
