<?xml version="1.0" encoding="utf-8"?>
<!-- Generator: Adobe Illustrator 24.3.0, SVG Export Plug-In . SVG Version: 6.00 Build 0)  -->
<svg version="1.1" id="Layer_1" xmlns="http://www.w3.org/2000/svg" xmlns:xlink="http://www.w3.org/1999/xlink" x="0px" y="0px"
	 viewBox="0 0 62 62" style="enable-background:new 0 0 62 62;" xml:space="preserve">
<style type="text/css">
	.st0{fill:#4099AD;}
	.st1{fill:#E8EEF4;}
	.st2{fill:#3C889C;}
	.st3{fill:#FFFFFF;}
</style>
<g>
	<g>
		<g>
			<path class="st0" d="M39.7,18.1c-1.4,0-2.5-1.1-2.5-2.5V0H12.9C9.5,0,6.7,2.8,6.7,6.2v49.6c0,3.4,2.8,6.2,6.2,6.2h36.2
				c3.4,0,6.2-2.8,6.2-6.2V18.1H39.7z"/>
		</g>
		<path class="st1" d="M39.5,18.1h15.8L37.2,0v15.8C37.3,17,38.3,18,39.5,18.1z"/>
		<polygon class="st2" points="55.3,30.9 55.3,18.2 39.6,18.2 		"/>
	</g>
	<g>
		<path class="st3" d="M16.8,48.5c0.9,0,1.5,0.7,1.5,1.6c0,0.9-0.6,1.5-1.5,1.5s-1.5-0.7-1.5-1.5C15.3,49.2,15.9,48.5,16.8,48.5z"/>
		<path class="st3" d="M21,43.1h2.5v8.2c0,1.8-0.7,3.3-3,3.3c-0.7,0-1.1-0.1-1.5-0.2l0.4-1.8c0.2,0.1,0.4,0.1,0.7,0.1
			c0.7,0,0.9-0.4,0.9-1.3V43.1z M20.8,40.6c0-0.8,0.6-1.3,1.4-1.3s1.4,0.5,1.4,1.3s-0.6,1.3-1.4,1.3C21.4,41.9,20.8,41.4,20.8,40.6z
			"/>
		<path class="st3" d="M28.5,52v2.4H26V43.1h2l0.2,0.8h0.1c0.7-0.6,1.5-1,2.4-1c2,0,3.2,1.7,3.2,4.2c0,2.8-1.7,4.5-3.5,4.5
			c-0.7,0-1.4-0.3-2-0.9L28.5,52z M29.8,49.6c0.9,0,1.5-0.7,1.5-2.4c0-1.5-0.5-2.2-1.4-2.2c-0.5,0-0.9,0.2-1.4,0.8v3.4
			C29,49.5,29.4,49.6,29.8,49.6z"/>
		<path class="st3" d="M44.5,51.1L44.5,51.1c-0.4-0.4-0.8-0.8-0.8-1.5c0-0.6,0.4-1.2,0.9-1.6v-0.1c-0.6-0.4-1.1-1.2-1.1-2.2
			c0-2,1.6-3,3.4-3c0.5,0,0.9,0.1,1.3,0.2h3v1.8h-1.3c0.2,0.3,0.3,0.7,0.3,1.1c0,1.9-1.4,2.8-3.3,2.8c-0.3,0-0.6-0.1-1-0.2
			c-0.2,0.2-0.3,0.3-0.3,0.6c0,0.4,0.3,0.6,1.3,0.6h1.3c2,0,3.2,0.6,3.2,2.1c0,1.7-1.8,3-4.6,3c-1.9,0-3.5-0.6-3.5-2.1
			C43.3,52.1,43.7,51.6,44.5,51.1z M47.1,53.4c1.1,0,1.9-0.5,1.9-1s-0.5-0.7-1.3-0.7h-0.9c-0.6,0-0.9,0-1.2-0.1
			c-0.3,0.3-0.5,0.5-0.5,0.8C45.3,53,46,53.4,47.1,53.4z M48.1,45.9c0-0.9-0.5-1.3-1.1-1.3c-0.7,0-1.1,0.5-1.1,1.3
			c0,0.9,0.5,1.4,1.1,1.4C47.6,47.3,48.1,46.8,48.1,45.9z"/>
		<path class="st3" d="M38.9,42.9c2.4,0,3.5,1.7,3.5,4c0,0.4-0.1,0.8-0.1,1h-5c0.2,1.3,1.1,1.8,2.2,1.8c0.6,0,1.2-0.2,1.8-0.5
			l0.8,1.5c-0.9,0.6-2,0.9-2.9,0.9c-2.4,0-4.2-1.6-4.2-4.3C35,44.6,36.9,42.9,38.9,42.9z M40.3,46.4c0-1-0.4-1.6-1.4-1.6
			c-0.8,0-1.4,0.5-1.6,1.6H40.3z"/>
	</g>
</g>
</svg>
