<?xml version="1.0" encoding="utf-8"?>
<!-- Generator: Adobe Illustrator 24.3.0, SVG Export Plug-In . SVG Version: 6.00 Build 0)  -->
<svg version="1.1" id="Layer_1" xmlns="http://www.w3.org/2000/svg" xmlns:xlink="http://www.w3.org/1999/xlink" x="0px" y="0px"
	 viewBox="0 0 62 62" style="enable-background:new 0 0 62 62;" xml:space="preserve">
<style type="text/css">
	.st0{fill:#9971A6;}
	.st1{fill:#E8EEF4;}
	.st2{fill:#8B5C99;}
	.st3{fill:#FFFFFF;}
</style>
<g>
	<g>
		<g>
			<path class="st0" d="M39.7,18.1c-1.4,0-2.5-1.1-2.5-2.5V0H12.9C9.5,0,6.7,2.8,6.7,6.2v49.6c0,3.4,2.8,6.2,6.2,6.2h36.2
				c3.4,0,6.2-2.8,6.2-6.2V18.1H39.7z"/>
		</g>
		<path class="st1" d="M39.5,18.1h15.8L37.2,0v15.8C37.3,17,38.3,18,39.5,18.1z"/>
		<polygon class="st2" points="55.3,30.9 55.3,18.2 39.6,18.2 		"/>
	</g>
	<g>
		<path class="st3" d="M16.5,49c0.7,0,1.3,0.6,1.3,1.4c0,0.8-0.6,1.4-1.3,1.4c-0.7,0-1.3-0.6-1.3-1.4C15.1,49.6,15.7,49,16.5,49z"/>
		<path class="st3" d="M19.6,44.3h1.8l0.1,0.9h0.1c0.6-0.6,1.2-1.1,2.2-1.1c1,0,1.6,0.4,2,1.2c0.6-0.7,1.3-1.2,2.3-1.2
			c1.6,0,2.3,1.1,2.3,2.9v4.5h-2.2v-4.2c0-1.1-0.3-1.4-0.9-1.4c-0.4,0-0.8,0.2-1.2,0.7v4.9h-2.2v-4.2c0-1.1-0.3-1.4-0.9-1.4
			c-0.4,0-0.8,0.2-1.2,0.7v4.9h-2.2V44.3z"/>
		<path class="st3" d="M34.4,52.1v2.1h-2.2v-10H34l0.1,0.7h0.1c0.6-0.5,1.3-0.9,2.1-0.9c1.8,0,2.8,1.5,2.8,3.7
			c0,2.5-1.5,3.9-3.1,3.9c-0.6,0-1.2-0.3-1.7-0.8L34.4,52.1z M35.5,50c0.7,0,1.4-0.6,1.4-2.1c0-1.3-0.4-2-1.3-2
			c-0.4,0-0.8,0.2-1.2,0.7v3C34.7,49.8,35.2,50,35.5,50z"/>
		<path class="st3" d="M47.6,49.5h-1.1v2.3h-2.1v-2.3h-4.2v-1.5l3.5-5.8h2.8v5.7h1.1V49.5z M44.4,47.8v-1.6c0-0.6,0.1-1.6,0.1-2.2
			h-0.1c-0.2,0.5-0.5,1.1-0.8,1.6l-1.3,2.1H44.4z"/>
	</g>
</g>
</svg>
