<?xml version="1.0" encoding="utf-8"?>
<!-- Generator: Adobe Illustrator 24.3.0, SVG Export Plug-In . SVG Version: 6.00 Build 0)  -->
<svg version="1.1" id="Layer_1" xmlns="http://www.w3.org/2000/svg" xmlns:xlink="http://www.w3.org/1999/xlink" x="0px" y="0px"
	 viewBox="0 0 62 62" style="enable-background:new 0 0 62 62;" xml:space="preserve">
<style type="text/css">
	.st0{fill:#E3793B;}
	.st1{fill:#E8EEF4;}
	.st2{fill:#BF6D3A;}
	.st3{fill:#FFFFFF;}
</style>
<g>
	<g>
		<g>
			<path class="st0" d="M39.7,18.1c-1.4,0-2.5-1.1-2.5-2.5V0H12.9C9.5,0,6.7,2.8,6.7,6.2v49.6c0,3.4,2.8,6.2,6.2,6.2h36.2
				c3.4,0,6.2-2.8,6.2-6.2V18.1H39.7z"/>
		</g>
		<path class="st1" d="M39.5,18.1h15.8L37.2,0v15.8C37.3,17,38.3,18,39.5,18.1z"/>
		<polygon class="st2" points="55.3,30.9 55.3,18.2 39.6,18.2 		"/>
	</g>
	<g>
		<path class="st3" d="M16.8,48.5c0.9,0,1.5,0.7,1.5,1.6c0,0.9-0.6,1.5-1.5,1.5c-0.9,0-1.5-0.7-1.5-1.5
			C15.3,49.2,15.9,48.5,16.8,48.5z"/>
		<path class="st3" d="M22.8,52v2.4h-2.5V43.1h2l0.2,0.8h0.1c0.7-0.6,1.5-1,2.4-1c2,0,3.2,1.7,3.2,4.2c0,2.8-1.7,4.5-3.5,4.5
			c-0.7,0-1.4-0.3-2-0.9L22.8,52z M24.1,49.6c0.9,0,1.5-0.7,1.5-2.4c0-1.5-0.5-2.2-1.4-2.2c-0.5,0-0.9,0.2-1.4,0.8v3.4
			C23.2,49.5,23.7,49.6,24.1,49.6z"/>
		<path class="st3" d="M32.9,42.9c0.9,0,1.5,0.3,2,0.9l-0.1-1.3v-2.8h2.5v11.7h-2l-0.2-0.8H35c-0.6,0.6-1.4,1-2.2,1
			c-2.1,0-3.4-1.6-3.4-4.3S31.1,42.9,32.9,42.9z M33.5,49.6c0.5,0,1-0.2,1.4-0.8v-3.4c-0.4-0.4-0.9-0.5-1.4-0.5
			c-0.8,0-1.5,0.7-1.5,2.3C32,48.9,32.5,49.6,33.5,49.6z"/>
		<path class="st3" d="M44.1,41.6c-0.3-0.1-0.6-0.2-0.9-0.2c-0.6,0-1,0.3-1,1.2v0.5h1.5V45h-1.5v6.4h-2.5V45h-1.1v-1.8l1.1-0.1v-0.5
			c0-1.8,0.8-3.2,3.1-3.2c0.7,0,1.3,0.2,1.7,0.3L44.1,41.6z"/>
	</g>
</g>
</svg>
