<?xml version="1.0" encoding="utf-8"?>
<!-- Generator: Adobe Illustrator 24.3.0, SVG Export Plug-In . SVG Version: 6.00 Build 0)  -->
<svg version="1.1" id="Layer_1" xmlns="http://www.w3.org/2000/svg" xmlns:xlink="http://www.w3.org/1999/xlink" x="0px" y="0px"
	 viewBox="0 0 62 62" style="enable-background:new 0 0 62 62;" xml:space="preserve">
<style type="text/css">
	.st0{fill:#2776AE;}
	.st1{fill:#E8EEF4;}
	.st2{fill:#225E96;}
	.st3{fill:#FFFFFF;}
</style>
<g>
	<g>
		<g>
			<path class="st0" d="M39.7,18.1c-1.4,0-2.5-1.1-2.5-2.5V0H12.9C9.5,0,6.7,2.8,6.7,6.2v49.6c0,3.4,2.8,6.2,6.2,6.2h36.2
				c3.4,0,6.2-2.8,6.2-6.2V18.1H39.7z"/>
		</g>
		<path class="st1" d="M39.5,18.1h15.8L37.2,0v15.8C37.3,17,38.3,18,39.5,18.1z"/>
		<polygon class="st2" points="55.3,30.9 55.3,18.2 39.6,18.2 		"/>
	</g>
	<g>
		<path class="st3" d="M16.8,48.5c0.9,0,1.5,0.7,1.5,1.6c0,0.9-0.6,1.5-1.5,1.5s-1.5-0.7-1.5-1.5C15.3,49.2,15.9,48.5,16.8,48.5z"/>
		<path class="st3" d="M22.8,52v2.4h-2.5V43.1h2l0.2,0.8h0.1c0.7-0.6,1.5-1,2.4-1c2,0,3.2,1.7,3.2,4.2c0,2.8-1.7,4.5-3.5,4.5
			c-0.7,0-1.4-0.3-2-0.9L22.8,52z M24.1,49.6c0.9,0,1.5-0.7,1.5-2.4c0-1.5-0.5-2.2-1.4-2.2c-0.5,0-0.9,0.2-1.4,0.8v3.4
			C23.2,49.5,23.7,49.6,24.1,49.6z"/>
		<path class="st3" d="M29.9,43.1h2l0.2,1.1h0.1c0.7-0.7,1.5-1.3,2.7-1.3c1.8,0,2.6,1.3,2.6,3.3v5.1H35v-4.8c0-1.2-0.3-1.6-1-1.6
			c-0.6,0-1,0.3-1.5,0.8v5.6H30L29.9,43.1L29.9,43.1z"/>
		<path class="st3" d="M40.1,51.1L40.1,51.1c-0.4-0.4-0.8-0.8-0.8-1.5c0-0.6,0.4-1.2,0.9-1.6v-0.1c-0.6-0.4-1.1-1.2-1.1-2.2
			c0-2,1.6-3,3.4-3c0.5,0,0.9,0.1,1.3,0.2h3v1.8h-1.3c0.1,0.3,0.3,0.7,0.3,1.1c0,1.9-1.4,2.8-3.3,2.8c-0.3,0-0.6-0.1-1-0.2
			c-0.2,0.2-0.3,0.3-0.3,0.6c0,0.4,0.3,0.6,1.3,0.6h1.3c2,0,3.2,0.6,3.2,2.1c0,1.7-1.8,3-4.6,3c-1.9,0-3.5-0.6-3.5-2.1
			C38.9,52.1,39.3,51.6,40.1,51.1z M42.8,53.4c1.1,0,1.9-0.5,1.9-1s-0.5-0.7-1.3-0.7h-0.9c-0.6,0-0.9,0-1.2-0.1
			c-0.3,0.3-0.5,0.5-0.5,0.8C40.9,53,41.7,53.4,42.8,53.4z M43.7,45.9c0-0.9-0.5-1.3-1.1-1.3c-0.7,0-1.1,0.5-1.1,1.3
			c0,0.9,0.5,1.4,1.1,1.4C43.2,47.3,43.7,46.8,43.7,45.9z"/>
	</g>
</g>
</svg>
