<?xml version="1.0" encoding="utf-8"?>
<!-- Generator: Adobe Illustrator 26.0.0, SVG Export Plug-In . SVG Version: 6.00 Build 0)  -->
<svg version="1.1" id="Layer_1" xmlns="http://www.w3.org/2000/svg" xmlns:xlink="http://www.w3.org/1999/xlink" x="0px" y="0px"
	 viewBox="0 0 62 62" style="enable-background:new 0 0 62 62;" xml:space="preserve">
<style type="text/css">
	.st0{fill:#FF6400;}
	.st1{fill:#E8EEF4;}
	.st2{fill:#ED5500;}
	.st3{fill:#FFFFFF;}
</style>
<g>
	<g>
		<g>
			<path class="st0" d="M39.7,18.1c-1.4,0-2.5-1.1-2.5-2.5V0H12.9C9.5,0,6.7,2.8,6.7,6.2v49.6c0,3.4,2.8,6.2,6.2,6.2h36.2
				c3.4,0,6.2-2.8,6.2-6.2V18.1H39.7z"/>
		</g>
		<path class="st1" d="M39.5,18.1h15.8L37.2,0v15.8C37.3,17,38.3,18,39.5,18.1z"/>
		<polygon class="st2" points="55.3,30.9 55.3,18.2 39.6,18.2 		"/>
	</g>
</g>
<g>
	<path class="st3" d="M13.6,48.5h0.2c0.8,0,1.4,0.6,1.4,1.4l0,0c0,0.8-0.6,1.4-1.4,1.4h-0.2c-0.8,0-1.4-0.6-1.4-1.4l0,0
		C12.2,49.2,12.8,48.5,13.6,48.5z"/>
	<path class="st3" d="M16.4,54.3V43.9h2.7V45c0.4-0.5,0.7-0.8,1-0.9c0.4-0.2,0.9-0.3,1.4-0.3c1,0,1.8,0.4,2.3,1.2
		c0.5,0.8,0.8,1.7,0.8,2.9c0,1.3-0.3,2.2-0.9,2.9c-0.6,0.7-1.4,1-2.3,1c-0.4,0-0.8-0.1-1.2-0.2s-0.7-0.4-1-0.7v3.6H16.4z M19.3,47.7
		c0,0.6,0.1,1,0.4,1.3c0.2,0.3,0.6,0.4,0.9,0.4c0.3,0,0.6-0.1,0.8-0.4s0.3-0.7,0.3-1.4c0-0.6-0.1-1.1-0.4-1.3
		c-0.2-0.3-0.5-0.4-0.9-0.4c-0.4,0-0.7,0.1-0.9,0.4S19.3,47,19.3,47.7z"/>
	<path class="st3" d="M25.5,54.3V43.9h2.7V45c0.4-0.5,0.7-0.8,1-0.9c0.4-0.2,0.9-0.3,1.4-0.3c1,0,1.8,0.4,2.3,1.2
		c0.6,0.8,0.8,1.7,0.8,2.9c0,1.3-0.3,2.2-0.9,2.9c-0.6,0.7-1.4,1-2.3,1c-0.4,0-0.8-0.1-1.2-0.2c-0.4-0.2-0.7-0.4-1-0.7v3.6H25.5z
		 M28.4,47.7c0,0.6,0.1,1,0.4,1.3c0.2,0.3,0.6,0.4,0.9,0.4c0.3,0,0.6-0.1,0.8-0.4s0.3-0.7,0.3-1.4c0-0.6-0.1-1.1-0.4-1.3
		c-0.2-0.3-0.5-0.4-0.9-0.4c-0.4,0-0.7,0.1-0.9,0.4S28.4,47,28.4,47.7z"/>
	<path class="st3" d="M38.1,41v2.9h1.6V46h-1.6v2.7c0,0.3,0,0.5,0.1,0.6c0.1,0.2,0.3,0.2,0.5,0.2c0.2,0,0.5-0.1,0.9-0.2l0.2,2
		c-0.7,0.2-1.4,0.2-2,0.2c-0.7,0-1.2-0.1-1.6-0.3c-0.3-0.2-0.6-0.5-0.8-0.8s-0.2-1-0.2-1.8V46h-1.1v-2.1h1.1v-1.4L38.1,41z"/>
	<path class="st3" d="M40.4,43.9h3.4l1.2,2.1l1.4-2.1h3.2l-2.6,3.6l2.8,3.9h-3.4L45.1,49l-1.6,2.4h-3.1l2.7-3.9L40.4,43.9z"/>
</g>
</svg>
