<?xml version="1.0" encoding="utf-8"?>
<!-- Generator: Adobe Illustrator 24.3.0, SVG Export Plug-In . SVG Version: 6.00 Build 0)  -->
<svg version="1.1" id="Layer_1" xmlns="http://www.w3.org/2000/svg" xmlns:xlink="http://www.w3.org/1999/xlink" x="0px" y="0px"
	 viewBox="0 0 62 62" style="enable-background:new 0 0 62 62;" xml:space="preserve">
<style type="text/css">
	.st0{fill:#007F3A;}
	.st1{fill:#E8EEF4;}
	.st2{fill:#00632A;}
	.st3{fill:#FFFFFF;}
</style>
<g>
	<g>
		<g>
			<path class="st0" d="M39.7,18.1c-1.4,0-2.5-1.1-2.5-2.5V0H12.9C9.5,0,6.7,2.8,6.7,6.2v49.6c0,3.4,2.8,6.2,6.2,6.2h36.2
				c3.4,0,6.2-2.8,6.2-6.2V18.1H39.7z"/>
		</g>
		<path class="st1" d="M39.5,18.1h15.8L37.2,0v15.8C37.3,17,38.3,18,39.5,18.1z"/>
		<polygon class="st2" points="55.3,30.9 55.3,18.2 39.6,18.2 		"/>
	</g>
	<g>
		<path class="st3" d="M17.4,48.5c0.9,0,1.5,0.7,1.5,1.6c0,0.9-0.6,1.5-1.5,1.5s-1.5-0.7-1.5-1.5C15.9,49.2,16.5,48.5,17.4,48.5z"/>
		<path class="st3" d="M22.6,47.1l-2.4-4h2.6l0.7,1.3c0.2,0.5,0.5,1,0.7,1.4h0.1c0.2-0.5,0.4-1,0.6-1.4l0.6-1.3H28l-2.4,4.3l2.6,4
			h-2.6L24.8,50c-0.3-0.5-0.5-1-0.8-1.4h-0.1c-0.2,0.5-0.4,1-0.6,1.4l-0.7,1.4h-2.5L22.6,47.1z"/>
		<path class="st3" d="M43.4,47.1l-2.4-4h2.6l0.7,1.3c0.2,0.5,0.5,1,0.7,1.4h0.1c0.2-0.5,0.4-1,0.6-1.4l0.6-1.3h2.5l-2.4,4.3l2.6,4
			h-2.6L45.5,50c-0.3-0.5-0.5-1-0.8-1.4h-0.1c-0.2,0.5-0.4,1-0.6,1.4l-0.7,1.4h-2.5L43.4,47.1z"/>
		<path class="st3" d="M29.5,39.7H32v9.2c0,0.5,0.2,0.7,0.4,0.7c0.1,0,0.2,0,0.3,0l0.3,1.8c-0.3,0.1-0.7,0.2-1.2,0.2
			c-1.7,0-2.3-1.1-2.3-2.8V39.7z"/>
		<path class="st3" d="M34.7,48.9c0.8,0.6,1.4,0.9,2.1,0.9c0.7,0,1.1-0.3,1.1-0.7c0-0.6-0.8-0.8-1.7-1.1c-1-0.4-2.2-1.1-2.2-2.4
			c0-1.5,1.3-2.6,3.2-2.6c1.3,0,2.2,0.5,2.9,1.1L39,45.4c-0.6-0.4-1.2-0.7-1.8-0.7s-0.9,0.2-0.9,0.7s0.8,0.7,1.6,1.1
			c1.1,0.4,2.2,1,2.2,2.5s-1.2,2.7-3.4,2.7c-1.1,0-2.3-0.5-3.2-1.2L34.7,48.9z"/>
	</g>
</g>
</svg>
