<?xml version="1.0" encoding="utf-8"?>
<!-- Generator: Adobe Illustrator 26.0.2, SVG Export Plug-In . SVG Version: 6.00 Build 0)  -->
<svg version="1.1" xmlns="http://www.w3.org/2000/svg" xmlns:xlink="http://www.w3.org/1999/xlink" x="0px" y="0px"
	 viewBox="0 0 210.74 262" style="enable-background:new 0 0 210.74 262;" xml:space="preserve">
<style type="text/css">
	.st0{fill:#FFFFFF;}
</style>
<g id="Background">
</g>
<g id="Icons">
	<g>
		<g>
			<path class="st0" d="M105.37,103.43c-14.91,0-27.04-12.09-27.04-26.95c0-8.57,4.17-16.7,11.15-21.76
				c4.62-3.39,10.12-5.19,15.89-5.19c5.77,0,11.27,1.8,15.91,5.2c0.22,0.16,0.42,0.34,0.6,0.53c6.6,5,10.52,12.87,10.52,21.21
				C132.41,91.34,120.28,103.43,105.37,103.43z M105.37,58.54c-3.84,0-7.5,1.2-10.58,3.46c-4.67,3.38-7.44,8.79-7.44,14.48
				c0,9.89,8.09,17.94,18.02,17.94s18.02-8.05,18.02-17.94c0-5.71-2.76-11.07-7.38-14.35c-0.22-0.16-0.43-0.33-0.61-0.52
				C112.43,59.6,108.98,58.54,105.37,58.54z"/>
		</g>
		<g>
			<path class="st0" d="M88.5,61.04L82,52.2c-0.07-0.09-0.13-0.19-0.2-0.29l-0.36-0.58c-8.86-12.28-6.96-29.04,4.47-39.06
				c5.42-4.79,12.33-7.43,19.46-7.43c7.36,0,14.72,2.9,20.19,7.96c10.78,10.15,12.33,26.76,3.64,38.67l-6.94,9.55l-7.29-5.3
				l6.94-9.56c6.02-8.26,4.94-19.77-2.51-26.78c-3.79-3.51-8.92-5.53-14.04-5.53c-4.93,0-9.73,1.84-13.51,5.18
				c-7.94,6.97-9.25,18.63-3.04,27.13c0.07,0.09,0.13,0.18,0.19,0.28L89.37,47l6.39,8.7L88.5,61.04z"/>
		</g>
		<g>
			<path class="st0" d="M64.94,92.77c-11.44,0-22.14-6.65-26.95-17.64c-2.89-6.59-3.26-13.96-1.07-20.76
				c2.26-7,7.19-12.93,13.89-16.69c13.45-7.31,30-3.29,38.55,9.33l-7.46,5.06c-5.94-8.76-17.43-11.56-26.73-6.5
				c-4.66,2.62-8.12,6.74-9.68,11.58c-1.52,4.7-1.26,9.81,0.75,14.37c4.23,9.66,15.03,14.48,25.12,11.22l11.18-3.61l2.77,8.58
				l-11.18,3.61C71.08,92.3,67.98,92.77,64.94,92.77z"/>
		</g>
		<g>
			<path class="st0" d="M80.52,140.02c-6.3,0-12.39-1.92-17.43-5.53c-6.03-4.39-10.15-10.88-11.62-18.29
				c-2.89-15.02,6.03-29.49,20.76-33.69c2.39-0.68,4.89,0.7,5.57,3.1c0.68,2.39-0.71,4.89-3.1,5.57
				c-10.2,2.91-16.38,12.92-14.39,23.29c1.02,5.16,3.88,9.68,8.05,12.72c3.97,2.84,8.95,4.18,14,3.75
				c10.45-1.04,18.43-9.74,18.5-20.24V98.92c0-2.49,2.02-4.51,4.51-4.51c2.49,0,4.51,2.02,4.51,4.51v11.8
				c-0.1,15.15-11.57,27.68-26.68,29.18C82.3,139.98,81.41,140.02,80.52,140.02z"/>
		</g>
		<g>
			<path class="st0" d="M130.38,140.03c-1.24,0-2.49-0.08-3.75-0.23c-15.23-1.94-26.3-14.89-25.76-30.13l9.01,0.32
				c-0.37,10.56,7.31,19.53,17.87,20.88c5.25,0.64,10.46-0.66,14.63-3.68c4-2.95,6.81-7.24,7.88-12.03
				c2.31-10.33-3.56-20.57-13.66-23.84c-0.26-0.08-0.48-0.17-0.69-0.26l-10.5-3.44l2.81-8.56l10.46,3.42
				c0.24,0.08,0.46,0.16,0.67,0.25c14.58,4.71,23.04,19.49,19.71,34.39c-1.54,6.91-5.58,13.07-11.36,17.34
				C142.66,138.11,136.62,140.03,130.38,140.03z"/>
		</g>
		<g>
			<path class="st0" d="M145.62,92.74c-3.01,0-6.04-0.46-9.02-1.43c-0.25-0.08-0.47-0.17-0.68-0.25l2.74-8.59
				c0.26,0.08,0.48,0.17,0.69,0.26c9.74,3.17,20.45-1.41,24.97-10.65c2.2-4.69,2.55-10.01,0.94-14.91
				c-1.49-4.62-4.73-8.61-9.13-11.24c-9.12-5.34-20.71-2.96-26.93,5.55l-6.94,9.55l-7.29-5.3l6.94-9.56
				c8.97-12.27,25.64-15.71,38.81-8c6.31,3.78,10.95,9.53,13.1,16.21c2.32,7.07,1.83,14.74-1.38,21.59
				C167.33,86.43,156.71,92.74,145.62,92.74z"/>
		</g>
		<g>
			<path class="st0" d="M105.37,58.54c-2.49,0-4.51-2.02-4.51-4.51V34.21c0-2.49,2.02-4.51,4.51-4.51c2.49,0,4.51,2.02,4.51,4.51
				v19.83C109.88,56.53,107.86,58.54,105.37,58.54z"/>
		</g>
		<g>
			<path class="st0" d="M83.99,74.07c-0.46,0-0.93-0.07-1.39-0.22l-19.01-6.14c-2.37-0.77-3.67-3.31-2.9-5.67
				c0.77-2.37,3.31-3.67,5.67-2.9l19.01,6.14c2.37,0.77,3.67,3.31,2.9,5.67C87.66,72.86,85.89,74.07,83.99,74.07z"/>
		</g>
		<g>
			<path class="st0" d="M80.4,115.18c-0.92,0-1.85-0.28-2.65-0.87c-2.01-1.47-2.45-4.29-0.98-6.3l11.75-16.09
				c1.47-2.01,4.29-2.45,6.3-0.98c2.01,1.47,2.45,4.29,0.98,6.3l-11.75,16.09C83.16,114.54,81.79,115.18,80.4,115.18z"/>
		</g>
		<g>
			<path class="st0" d="M130.35,115.18c-1.39,0-2.76-0.64-3.64-1.85l-11.75-16.09c-1.47-2.01-1.03-4.83,0.98-6.3
				c2.01-1.47,4.83-1.03,6.3,0.98l11.75,16.09c1.47,2.01,1.03,4.83-0.98,6.3C132.2,114.89,131.27,115.18,130.35,115.18z"/>
		</g>
		<g>
			<path class="st0" d="M126.77,74.07c-1.9,0-3.67-1.21-4.29-3.12c-0.77-2.37,0.53-4.91,2.9-5.67l19-6.14
				c2.37-0.76,4.91,0.53,5.67,2.9c0.77,2.37-0.53,4.91-2.9,5.67l-19,6.14C127.7,74,127.23,74.07,126.77,74.07z"/>
		</g>
		<g>
			<path class="st0" d="M105.37,257.16c-2.49,0-4.51-2.02-4.51-4.51V98.92c0-2.49,2.02-4.51,4.51-4.51c2.49,0,4.51,2.02,4.51,4.51
				v153.74C109.88,255.15,107.86,257.16,105.37,257.16z"/>
		</g>
		<g>
			<path class="st0" d="M105.37,257.16c-2.12,0-3.96-1.48-4.4-3.55c-10.12-46.77-45.13-83.45-91.38-95.73
				c-2.4-0.64-3.84-3.11-3.2-5.51c0.64-2.4,3.11-3.84,5.51-3.2c44.21,11.73,78.83,44.29,93.47,86.76
				c14.64-42.47,49.26-75.03,93.47-86.76c2.4-0.64,4.87,0.79,5.51,3.2c0.64,2.41-0.79,4.87-3.2,5.51
				c-46.24,12.28-81.26,48.96-91.38,95.73C109.33,255.68,107.49,257.16,105.37,257.16z"/>
		</g>
		<g>
			<path class="st0" d="M105.37,257.16c-0.17,0-0.34-0.01-0.52-0.03c-53.46-6.16-94.93-49.6-98.6-103.3
				c-0.17-2.48,1.71-4.63,4.19-4.8c2.47-0.17,4.63,1.71,4.8,4.19c3.37,49.19,41.23,89.02,90.13,94.9
				c48.9-5.88,86.76-45.71,90.13-94.9c0.17-2.48,2.33-4.35,4.8-4.19c2.48,0.17,4.36,2.32,4.19,4.8
				c-3.67,53.7-45.14,97.14-98.6,103.3C105.72,257.15,105.54,257.16,105.37,257.16z"/>
		</g>
		<g>
			<path class="st0" d="M105.37,257.16c-1.09,0-2.18-0.39-3.04-1.18l-54.07-49.56c-1.83-1.68-1.96-4.53-0.28-6.37
				c1.68-1.83,4.53-1.96,6.37-0.28l51.03,46.77l51.03-46.77c1.83-1.68,4.69-1.56,6.37,0.28c1.68,1.83,1.56,4.69-0.28,6.37
				l-54.07,49.56C107.56,256.77,106.46,257.16,105.37,257.16z"/>
		</g>
	</g>
</g>
</svg>
