<?xml version="1.0" encoding="utf-8"?>
<!-- Generator: Adobe Illustrator 26.0.3, SVG Export Plug-In . SVG Version: 6.00 Build 0)  -->
<svg version="1.1" id="Layer_1" xmlns="http://www.w3.org/2000/svg" xmlns:xlink="http://www.w3.org/1999/xlink" x="0px" y="0px"
	 viewBox="0 0 500 500" style="enable-background:new 0 0 500 500;" xml:space="preserve">
<style type="text/css">
	.st0{fill:#FFFFFF;}
	.st1{fill-rule:evenodd;clip-rule:evenodd;fill:#FFFFFF;}
</style>
<g>
	<path class="st0" d="M65.14,68.13H92.1v10.89v7.74v0.03l0,0l0,0v0.03l0,0l0,0v0.03v0.03l0,0v0.03l0,0l0,0v0.06l0,0l0,0v0.03l0,0
		l0,0v0.03l0,0l0,0v0.03l0,0v0.03l0,0v0.03l0,0v0.03l0,0l0,0v0.03l0,0v0.03l0,0l0,0v0.03l0,0l0,0l0,0v0.03l0,0l0,0v0.03l0,0l0,0
		v0.03l0,0v0.03l0,0l0,0v0.03l0,0l0,0v0.03l0,0l0,0v0.03l0,0c0.17,4.56,2.13,8.7,5.16,11.74c3.17,3.17,7.54,5.16,12.36,5.16
		c4.85,0,9.21-1.98,12.39-5.16c3.03-3.03,4.99-7.17,5.16-11.74l0,0v-0.03l0,0l0,0v-0.03l0,0l0,0v-0.03l0,0l0,0v-0.03l0,0v-0.03l0,0
		l0,0v-0.03l0,0l0,0v-0.03l0,0l0,0l0,0v-0.03l0,0l0,0v-0.03l0,0v-0.03l0,0l0,0v-0.03l0,0v-0.03l0,0v-0.03l0,0v-0.03l0,0l0,0v-0.03
		l0,0l0,0v-0.03l0,0l0,0v-0.06l0,0l0,0v-0.03l0,0v-0.03v-0.03l0,0l0,0v-0.03l0,0l0,0v-0.03v-7.74V68.13h152.87v10.89v7.74v0.03l0,0
		l0,0v0.03l0,0l0,0v0.03v0.03l0,0v0.03l0,0l0,0v0.06l0,0l0,0v0.03l0,0l0,0v0.03l0,0l0,0v0.03l0,0v0.03l0,0v0.03l0,0v0.03l0,0l0,0
		v0.03l0,0v0.03h0.03l0,0v0.03l0,0l0,0l0,0v0.03l0,0l0,0v0.03l0,0l0,0v0.03l0,0v0.03l0,0l0,0v0.03l0,0l0,0v0.03l0,0l0,0v0.03l0,0
		c0.17,4.56,2.1,8.7,5.13,11.74c3.17,3.17,7.57,5.16,12.39,5.16c4.82,0,9.21-1.98,12.39-5.16c3.03-3.03,4.96-7.17,5.13-11.74l0,0
		v-0.03l0,0l0,0v-0.03l0,0l0,0v-0.03l0,0l0,0v-0.03l0,0v-0.03l0,0l0,0v-0.03l0,0l0,0v-0.03l0,0l0,0l0,0v-0.03l0,0l0,0v-0.03l0,0
		v-0.03l0,0l0,0v-0.03l0,0v-0.03l0,0v-0.03l0,0v-0.03l0,0l0,0v-0.03l0,0l0,0v-0.03l0,0l0,0v-0.06l0,0l0,0v-0.03l0,0v-0.03v-0.03l0,0
		l0,0v-0.03l0,0l0,0v-0.03v-7.74V68.13h26.96c10.52,0,20.1,4.28,27.01,11.23c6.94,6.92,11.25,16.5,11.25,27.01V239.2h-19.3v-87.99
		H46.17v211.18c0,5.21,2.15,9.95,5.58,13.41c3.43,3.43,8.19,5.56,13.38,5.56h184.85v19.3H65.14c-10.52,0-20.1-4.31-27.01-11.23
		c-6.92-6.94-11.22-16.5-11.22-27.04V106.37c0-10.52,4.31-20.1,11.22-27.01C45.04,72.41,54.62,68.13,65.14,68.13L65.14,68.13z"/>
	<path class="st1" d="M80.59,175.19h37.76c2.98,0,5.44,2.44,5.44,5.44v37.73c0,3.01-2.47,5.44-5.44,5.44H80.59
		c-3.01,0-5.44-2.44-5.44-5.44v-37.73C75.14,177.63,77.58,175.19,80.59,175.19L80.59,175.19z"/>
	<path class="st1" d="M150.01,175.19h37.76c2.98,0,5.44,2.44,5.44,5.44v37.73c0,3.01-2.47,5.44-5.44,5.44h-37.76
		c-2.98,0-5.44-2.44-5.44-5.44v-37.73C144.57,177.63,147.03,175.19,150.01,175.19L150.01,175.19z"/>
	<path class="st1" d="M219.43,175.19h37.76c3,0,5.44,2.44,5.44,5.44v37.73c0,3.01-2.44,5.44-5.44,5.44h-37.76
		c-2.98,0-5.44-2.44-5.44-5.44v-37.73C213.99,177.63,216.45,175.19,219.43,175.19L219.43,175.19z"/>
	<path class="st1" d="M288.88,175.19h37.73c3,0,5.44,2.44,5.44,5.44v37.73c0,3.01-2.44,5.44-5.44,5.44h-37.73
		c-3,0-5.44-2.44-5.44-5.44v-37.73C283.43,177.63,285.87,175.19,288.88,175.19L288.88,175.19z"/>
	<path class="st1" d="M80.59,242.32h37.76c2.98,0,5.44,2.44,5.44,5.44v37.76c0,2.98-2.47,5.44-5.44,5.44H80.59
		c-3.01,0-5.44-2.47-5.44-5.44v-37.76C75.14,244.76,77.58,242.32,80.59,242.32L80.59,242.32z"/>
	<path class="st1" d="M150.01,242.32h37.76c2.98,0,5.44,2.44,5.44,5.44v37.76c0,2.98-2.47,5.44-5.44,5.44h-37.76
		c-2.98,0-5.44-2.47-5.44-5.44v-37.76C144.57,244.76,147.03,242.32,150.01,242.32L150.01,242.32z"/>
	<path class="st1" d="M219.43,242.32h37.76c3,0,5.44,2.44,5.44,5.44v37.76c0,2.98-2.44,5.44-5.44,5.44h-37.76
		c-2.98,0-5.44-2.47-5.44-5.44v-37.76C213.99,244.76,216.45,242.32,219.43,242.32L219.43,242.32z"/>
	<path class="st1" d="M80.59,309.44h37.76c2.98,0,5.44,2.47,5.44,5.44v37.76c0,3-2.47,5.44-5.44,5.44H80.59
		c-3.01,0-5.44-2.44-5.44-5.44v-37.76C75.14,311.91,77.58,309.44,80.59,309.44L80.59,309.44z"/>
	<path class="st1" d="M150.01,309.44h37.76c2.98,0,5.44,2.47,5.44,5.44v37.76c0,3-2.47,5.44-5.44,5.44h-37.76
		c-2.98,0-5.44-2.44-5.44-5.44v-37.76C144.57,311.91,147.03,309.44,150.01,309.44L150.01,309.44z"/>
	<path class="st0" d="M370.66,259.95c28.29,0,53.92,11.48,72.45,30.02c18.54,18.54,29.99,44.14,29.99,72.43
		c0,28.29-11.45,53.89-29.99,72.42c-18.54,18.54-44.16,30.02-72.45,30.02c-28.26,0-53.89-11.48-72.42-30.02
		c-18.54-18.54-29.99-44.14-29.99-72.42c0-28.29,11.45-53.89,29.99-72.43C316.77,271.43,342.4,259.95,370.66,259.95L370.66,259.95z
		 M429.48,303.6c-15.05-15.05-35.86-24.35-58.82-24.35c-22.96,0-43.74,9.3-58.79,24.35c-15.05,15.05-24.35,35.83-24.35,58.79
		c0,22.96,9.3,43.77,24.35,58.79c15.05,15.05,35.83,24.35,58.79,24.35c22.96,0,43.77-9.3,58.82-24.35
		c15.02-15.02,24.35-35.83,24.35-58.79C453.83,339.43,444.5,318.66,429.48,303.6L429.48,303.6z"/>
	<path class="st1" d="M96.94,87.41c0.14,3.23,1.56,6.18,3.71,8.33c2.3,2.3,5.47,3.74,8.96,3.74c3.51,0,6.69-1.45,8.99-3.74
		c2.15-2.16,3.57-5.1,3.71-8.33c0.03-0.2,0.03-0.42,0.03-0.65v-7.74V68.13V47.89c0-3.49-1.45-6.69-3.74-8.99
		c-2.3-2.3-5.47-3.74-8.99-3.74c-3.49,0-6.66,1.45-8.96,3.74c-2.3,2.3-3.74,5.5-3.74,8.99v20.24v10.89v7.74
		C96.92,86.98,96.92,87.21,96.94,87.41L96.94,87.41z"/>
	<path class="st1" d="M284.85,68.13v10.89v7.74c0,0.23,0.03,0.45,0.03,0.65c0.17,3.23,1.56,6.18,3.71,8.33
		c2.32,2.3,5.5,3.74,8.99,3.74c3.49,0,6.66-1.45,8.99-3.74c2.15-2.16,3.54-5.1,3.71-8.33c0-0.2,0-0.42,0-0.65v-7.74V68.13V47.89
		c0-3.49-1.42-6.69-3.71-8.99c-2.32-2.3-5.5-3.74-8.99-3.74c-3.49,0-6.66,1.45-8.99,3.74c-2.3,2.3-3.74,5.5-3.74,8.99V68.13z"/>
	<g>
		<rect x="362.95" y="311.46" class="st0" width="15.41" height="66.54"/>
		
			<rect x="375.73" y="349.82" transform="matrix(6.123234e-17 -1 1 6.123234e-17 13.137 753.7321)" class="st0" width="15.41" height="40.96"/>
	</g>
</g>
</svg>
