<?xml version="1.0" encoding="utf-8"?>
<!-- Generator: Adobe Illustrator 26.0.2, SVG Export Plug-In . SVG Version: 6.00 Build 0)  -->
<svg version="1.1" id="Layer_1" xmlns="http://www.w3.org/2000/svg" xmlns:xlink="http://www.w3.org/1999/xlink" x="0px" y="0px"
	 viewBox="0 0 236.62 240" style="enable-background:new 0 0 236.62 240;" xml:space="preserve">
<style type="text/css">
	.st0{fill:#2D2D2D;}
</style>
<g>
	<path class="st0" d="M223.16,74.01c0-9.27-3.69-18.16-10.24-24.71l-24.85-23.91c-6.82-6.83-15.77-10.24-24.71-10.24
		c-8.94,0-17.89,3.41-24.71,10.24L33.75,129.62c-2.84,2.84-3.17,7.09-1.28,10.44l-19.01,9.5v57.83l17.47,17.47h57.83l9.61-19.22
		c1.07,0.44,2.2,0.68,3.34,0.68c2.24,0,4.47-0.85,6.18-2.56L212.92,98.72C219.48,92.17,223.16,83.28,223.16,74.01z M38.17,207.37
		l-7.24-7.24v-39.79l14.13-7.07l39.96,39.96l-7.07,14.13H38.17z M101.72,185.22l-49.43-49.43l74.14-74.14l49.43,49.43L101.72,185.22
		z M200.57,86.36l-12.36,12.36L138.78,49.3l12.35-12.36c3.3-3.3,7.69-5.12,12.36-5.12s9.05,1.82,12.36,5.12l24.71,24.7
		c3.31,3.31,5.13,7.7,5.13,12.36C205.69,78.69,203.87,83.07,200.57,86.36z"/>
	<rect x="135.79" y="207.37" class="st0" width="87.37" height="17.47"/>
</g>
</svg>
