<?xml version="1.0" encoding="utf-8"?>
<!-- Generator: Adobe Illustrator 26.0.3, SVG Export Plug-In . SVG Version: 6.00 Build 0)  -->
<svg version="1.1" id="Layer_1" xmlns="http://www.w3.org/2000/svg" xmlns:xlink="http://www.w3.org/1999/xlink" x="0px" y="0px"
	 viewBox="0 0 500 500" style="enable-background:new 0 0 500 500;" xml:space="preserve">
<style type="text/css">
	.st0{fill-rule:evenodd;clip-rule:evenodd;fill:#FFFFFF;}
</style>
<g>
	<g>
		<path class="st0" d="M195.37,103.06c-0.02-8.46-3.03-15.69-9.05-21.68c-6-6.01-13.24-9.02-21.71-9.03
			c-8.46,0.01-15.7,3.01-21.7,9.03c-6.01,5.99-9.03,13.22-9.03,21.68c0,8.49,3.01,15.74,9.03,21.76c6,6,13.24,9.01,21.7,9
			c8.46,0.01,15.7-3,21.71-9C192.33,118.8,195.35,111.55,195.37,103.06z M220.67,103.06c-0.04,11.64-3.12,22.01-9.24,31.13
			c-0.03,0.03-0.06,0.07-0.08,0.11c-0.37,0.53-0.76,1.07-1.17,1.59c-1.76,2.41-3.73,4.7-5.89,6.88v0.02
			c-0.45,0.44-0.89,0.86-1.35,1.27l1.93,3.36l-0.06,0.05l6.59,11.27h0.03l1.51,2.67c11.44-4.77,23.87-7.19,37.29-7.27
			c0.05,0,0.1,0,0.16,0h0.42c13.43,0.06,25.9,2.49,37.4,7.3l1.03-1.93l0.14,0.08l28.72-48.89c-0.21-0.2-0.42-0.4-0.64-0.61
			c-0.24-0.26-0.49-0.53-0.74-0.82c-1.66-1.81-3.18-3.71-4.55-5.72c-0.11-0.12-0.22-0.25-0.32-0.37
			c-5.26-7.83-7.95-16.84-8.07-27.02v-0.08c0.01-1.2,0.05-2.38,0.14-3.55c0.74-11.97,5.45-22.36,14.13-31.15h0.05l0.06-0.08v-0.03
			c9.65-9.52,21.2-14.26,34.67-14.22c9.05,0.03,17.2,2.15,24.46,6.35l0.14,0.08l0.02,0.05c3.65,2.09,7.03,4.72,10.14,7.89
			c0.02,0.03,0.04,0.05,0.06,0.08l0.05,0.05c8.31,8.36,12.96,18.25,13.98,29.64c0.04,0.24,0.07,0.49,0.07,0.74
			c0.09,1.35,0.13,2.7,0.14,4.05v0.08c0.01,5.82-0.86,11.25-2.6,16.3c-1.3,3.77-3.1,7.32-5.37,10.67c-0.02,0.05-0.05,0.09-0.08,0.13
			c0,0.03-0.02,0.06-0.03,0.08c-1.61,2.42-3.47,4.7-5.58,6.83c-0.19,0.2-0.38,0.39-0.58,0.58c-0.04,0.05-0.09,0.11-0.13,0.16
			c-0.03,0.01-0.06,0.02-0.09,0.03c-0.02,0.03-0.05,0.05-0.07,0.08c-3.21,3.15-6.63,5.76-10.3,7.83c-1.24,0.71-2.51,1.35-3.81,1.93
			c-0.11,0.09-0.22,0.17-0.35,0.24c-2.26,1.03-4.61,1.87-7.06,2.51c-4.08,1.09-8.41,1.64-13,1.67c-4.43-0.03-8.67-0.58-12.7-1.67
			c-0.06-0.01-0.11-0.02-0.16-0.02l-0.06,0.02l-0.14,0.32l-0.08,0.1l-0.08,0.21h-0.06c-9.82,16.74-19.65,33.48-29.48,50.21
			c3.11,2.44,6.14,5.11,9.08,8.02c0.95,0.86,1.87,1.76,2.72,2.7c0.02,0.01,0.04,0.02,0.05,0.03c14.62,15.48,23.16,33.52,25.63,54.1
			l7.52,0.05v-0.05h5.89c2.32-12.56,8.25-23.6,17.82-33.14c0.2-0.18,0.4-0.34,0.61-0.48c3.93-3.93,8.11-7.21,12.58-9.85
			c9.67-5.7,20.52-8.54,32.53-8.5h0.14c17.88-0.06,33.13,6.24,45.73,18.92c0.22,0.21,0.41,0.43,0.58,0.66
			c12.16,12.46,18.24,27.48,18.24,45.05c-0.04,13.37-3.6,25.32-10.66,35.84c-0.01,0.04-0.02,0.07-0.03,0.11
			c-2.3,3.37-5.01,6.62-8.13,9.74l-0.08,0.08c-0.02,0.01-0.05,0.02-0.08,0.03c-4.1,4.03-8.45,7.45-13.05,10.24
			c-0.15,0.08-0.31,0.16-0.48,0.24c-1.06,0.61-2.13,1.2-3.2,1.75h-0.03c-8.75,4.36-18.39,6.56-28.9,6.59
			c-10.52-0.03-20.08-2.19-28.7-6.48l-0.13-0.08c-0.03-0.01-0.05-0.02-0.08-0.02c-6.13-3.01-11.77-7.12-16.89-12.31h0.03l-0.03-0.03
			c-3.08-3.09-5.8-6.3-8.15-9.63c-0.09-0.12-0.17-0.25-0.24-0.37c-4.69-7.04-7.83-14.7-9.4-23l-13.42-0.03
			c-2.45,20.37-10.86,38.3-25.22,53.79c-0.03,0.03-0.06,0.05-0.09,0.08c-0.35,0.4-0.74,0.79-1.16,1.16
			c-0.47,0.46-0.95,0.93-1.46,1.43h0.03c-3.16,3.18-6.42,6.09-9.77,8.74l8.39,14.64h0.03l1.64,2.86c5.16-1.57,10.62-2.37,16.39-2.41
			h0.02c9.17,0.04,17.52,1.94,25.04,5.69c5.23,2.61,10.1,6.2,14.61,10.74c2.18,2.16,4.16,4.42,5.96,6.81
			c0.37,0.47,0.73,0.95,1.09,1.43c0.05,0.1,0.1,0.19,0.16,0.29c6.11,9.11,9.18,19.49,9.21,31.13c-0.01,15.43-5.49,28.6-16.42,39.49
			l-0.08,0.1c-3.49,3.43-7.15,6.31-10.98,8.66l-0.05,0.08c-0.15,0.08-0.3,0.16-0.45,0.24l-0.05,0.03
			c-8.25,4.79-17.55,7.25-27.87,7.39h-0.24c-15.5-0.1-28.69-5.6-39.57-16.49c-10.92-10.9-16.38-24.06-16.38-39.49
			c0.04-11.64,3.12-22.02,9.24-31.13c0.03-0.03,0.05-0.07,0.08-0.11c0.37-0.54,0.76-1.08,1.16-1.61c1.77-2.38,3.74-4.65,5.9-6.81
			v-0.05c0.46-0.46,0.92-0.91,1.4-1.35l-1.93-3.28l0.02-0.03l-8.15-14v-0.03c-11.45,4.73-23.87,7.11-37.24,7.15h-0.42
			c-13.55-0.05-26.06-2.48-37.56-7.28l-0.05,0.05l-27.56,46.88c0.21,0.2,0.42,0.4,0.64,0.61c0.23,0.26,0.47,0.54,0.71,0.82
			c1.68,1.81,3.21,3.71,4.58,5.72c0.11,0.12,0.2,0.24,0.29,0.37c5.25,7.83,7.95,16.84,8.07,27.02v0.08c0,1.2-0.03,2.38-0.11,3.55
			c-0.74,11.97-5.45,22.36-14.13,31.15h-0.05l-0.08,0.08v0.02c-9.64,9.53-21.19,14.28-34.65,14.24c-9.07-0.04-17.23-2.16-24.49-6.38
			l-0.11-0.08l-0.02-0.05c-3.65-2.09-7.03-4.72-10.14-7.89c-0.02-0.02-0.05-0.04-0.07-0.05l-0.03-0.08
			c-8.31-8.37-12.98-18.25-14-29.65c-0.04-0.24-0.08-0.49-0.08-0.74c-0.08-1.35-0.12-2.7-0.11-4.05v-0.08
			c-0.02-5.82,0.85-11.25,2.59-16.3c1.31-3.77,3.1-7.32,5.38-10.67c0.02-0.05,0.05-0.09,0.08-0.13c0-0.02,0.02-0.04,0.03-0.05
			c1.6-2.43,3.46-4.72,5.56-6.86c0.19-0.19,0.39-0.39,0.58-0.58c0.05-0.06,0.1-0.11,0.16-0.16c0.02-0.01,0.05-0.02,0.07-0.03
			c0.03-0.03,0.06-0.05,0.09-0.08c3.19-3.15,6.61-5.76,10.27-7.84c1.25-0.7,2.53-1.35,3.84-1.93c0.11-0.09,0.22-0.17,0.34-0.24
			c2.26-1.03,4.62-1.86,7.07-2.51c4.08-1.08,8.41-1.64,13-1.66c4.43,0.02,8.67,0.58,12.71,1.66c0.05,0.01,0.1,0.02,0.16,0.03
			l0.02-0.03l0.32-0.61h0.03l27.13-46.51c-3.23-2.58-6.35-5.39-9.37-8.44c-0.58-0.55-1.13-1.08-1.67-1.59
			c-0.09-0.11-0.18-0.21-0.26-0.32v0.03c-0.07-0.06-0.14-0.12-0.21-0.18h0.06l-0.08-0.08c-0.04-0.04-0.09-0.07-0.14-0.1
			c-14.64-15.57-23.2-33.63-25.67-54.18l-31.92-0.03c-1.47,6.63-4.12,12.77-7.94,18.42c0,0.03-0.02,0.05-0.03,0.08
			c-0.05,0.05-0.09,0.1-0.13,0.16c-1.98,2.81-4.26,5.54-6.83,8.18l-0.03,0.05c-0.07,0.06-0.14,0.13-0.21,0.18
			c-3.56,3.49-7.29,6.43-11.2,8.81c-0.03,0.01-0.05,0.02-0.08,0.03c-0.23,0.14-0.45,0.27-0.66,0.4c-0.07,0.03-0.14,0.05-0.19,0.08
			c-0.58,0.27-1.17,0.56-1.75,0.87c-0.08,0.05-0.16,0.11-0.23,0.16c-0.17,0.09-0.34,0.17-0.5,0.27c-7.6,3.75-15.92,5.65-24.99,5.69
			c-9.06-0.04-17.38-1.94-24.96-5.69c-0.15-0.09-0.29-0.18-0.42-0.29c-5.06-2.61-9.78-6.05-14.17-10.32
			c-0.07-0.06-0.14-0.12-0.21-0.18l-0.05-0.05c-2.56-2.65-4.83-5.37-6.81-8.18c-0.04-0.06-0.08-0.11-0.1-0.16
			c-0.03-0.03-0.06-0.06-0.08-0.08c-6.12-9.09-9.2-19.45-9.24-31.07c0-15.44,5.45-28.61,16.34-39.52l0.08-0.05
			c3.47-3.55,7.2-6.49,11.17-8.81c0.1-0.06,0.21-0.13,0.32-0.19c8.37-4.93,17.73-7.38,28.08-7.33h0.13
			c15.41-0.06,28.6,5.4,39.57,16.39c7.83,7.79,12.88,16.73,15.14,26.84h31.9c2.46-20.53,10.99-38.55,25.59-54.05
			c0.02-0.03,0.04-0.05,0.06-0.08c0.08-0.06,0.16-0.12,0.24-0.18c0.8-0.87,1.64-1.7,2.51-2.49l-0.16,0.13
			c3.01-2.98,6.12-5.73,9.32-8.23l-2.43-4.15l0.03-0.03l-5.95-10.43h-0.03l-1.64-2.86c-5.16,1.55-10.62,2.33-16.39,2.35h-0.03
			c-9.17-0.04-17.52-1.94-25.04-5.69c-5.23-2.6-10.1-6.16-14.62-10.69c-2.18-2.18-4.16-4.48-5.95-6.88
			c-0.34-0.47-0.68-0.95-1.01-1.43c-0.06-0.09-0.13-0.18-0.19-0.26c-6.13-9.11-9.22-19.49-9.26-31.13
			c0.01-15.43,5.48-28.6,16.41-39.49l0.11-0.11c3.48-3.43,7.14-6.31,10.96-8.66l0.08-0.05l0.02-0.03c0.13-0.08,0.26-0.16,0.4-0.23
			l0.08-0.03c8.26-4.81,17.57-7.28,27.9-7.44h0.18c15.5,0.12,28.69,5.63,39.58,16.54C215.21,74.46,220.67,87.62,220.67,103.06z
			 M328.99,76.06c0,6.33,2.2,11.77,6.57,16.33c0.14,0.14,0.28,0.28,0.42,0.42c4.65,4.67,10.25,7,16.78,7.01
			c6.54-0.01,12.15-2.35,16.81-7.01c0.14-0.14,0.28-0.28,0.42-0.42c1.05-1.08,1.96-2.21,2.75-3.39c2.55-3.79,3.81-8.11,3.81-12.94
			c-0.01-6.54-2.34-12.13-6.98-16.78c-4.66-4.67-10.27-7.02-16.81-7.04c-6.54,0.02-12.13,2.37-16.78,7.04
			c-3.79,3.79-6.05,8.21-6.75,13.26C329.07,73.68,328.99,74.86,328.99,76.06z M45.15,230.16c-6.01,6.01-9.01,13.26-9.01,21.73
			c0,8.48,2.99,15.74,9.01,21.76c6,6,13.24,9.01,21.7,9c8.48,0.01,15.74-2.99,21.76-9c6.01-6.02,9.01-13.27,9-21.76
			c0-8.47-3-15.72-9-21.73c-6.02-6.02-13.27-9.04-21.76-9.05C58.39,221.12,51.16,224.14,45.15,230.16z M314.69,379.1
			c-6.01,6.02-9.01,13.27-9,21.76c0,8.46,3,15.7,9,21.7c6.01,6.01,13.25,9.01,21.73,9c8.46,0.01,15.7-2.99,21.71-9
			c6.02-6,9.04-13.24,9.05-21.7c-0.01-8.49-3.03-15.74-9.05-21.76c-6-6.03-13.24-9.04-21.71-9.05
			C327.95,370.06,320.7,373.08,314.69,379.1z M250.56,179.24c-20.03,0-37.13,7.06-51.3,21.2c-14.13,14.18-21.2,31.29-21.2,51.32
			c0,17.29,5.26,32.39,15.8,45.29c3.55-4,7.55-6.37,11.99-7.12h0.02c4.78-0.76,9.96-1.51,15.54-2.28c0.4-0.05,0.81-0.11,1.21-0.16
			c0.66,0.51,1.32,0.99,1.98,1.46c0.36,0.25,0.73,0.5,1.09,0.74c7.21,4.77,15.24,7.17,24.09,7.23c0.09,0,0.18,0,0.27,0
			c0.09,0,0.17,0,0.27,0c8.83-0.05,16.85-2.46,24.03-7.23c0.36-0.24,0.73-0.49,1.09-0.74c0.67-0.46,1.34-0.95,2.01-1.46
			c0.4,0.05,0.8,0.11,1.19,0.16c5.59,0.76,10.78,1.52,15.56,2.28h0.05c4.66,0.79,8.82,3.36,12.5,7.73
			c10.89-13.04,16.33-28.34,16.33-45.9c0-20.04-7.08-37.14-21.25-51.32C287.68,186.3,270.59,179.23,250.56,179.24z M174.32,423.91
			c0-6.33-2.2-11.78-6.56-16.33c-0.14-0.14-0.28-0.28-0.43-0.43c-4.64-4.66-10.23-7-16.75-7.01c-6.56,0.01-12.17,2.35-16.84,7.01
			c-0.14,0.14-0.28,0.28-0.42,0.43c-1.03,1.08-1.94,2.21-2.73,3.39c-2.55,3.79-3.83,8.11-3.83,12.94c0,6.54,2.33,12.13,6.98,16.78
			c4.67,4.67,10.28,7.02,16.84,7.04c6.53-0.02,12.11-2.37,16.75-7.04c3.8-3.79,6.06-8.21,6.78-13.26
			C174.26,426.29,174.33,425.12,174.32,423.91z M424.57,291.17c10.86,0,20.13-3.83,27.82-11.52c7.7-7.68,11.54-16.96,11.54-27.82
			c0-10.87-3.84-20.15-11.54-27.85c-7.68-7.7-16.96-11.56-27.82-11.57c-10.87,0.01-20.14,3.87-27.82,11.57
			c-7.7,7.69-11.55,16.97-11.57,27.85c0.01,10.86,3.87,20.13,11.57,27.82C404.43,287.34,413.7,291.18,424.57,291.17z"/>
	</g>
	<g>
		<path class="st0" d="M275.62,200.33l2.04,2.17c4.11,4.69,7.02,9.98,8.71,15.88c0.03,0.12,0.07,0.23,0.13,0.34
			c0,0.03,0.01,0.05,0.03,0.08c0.05,0.22,0.1,0.44,0.15,0.66v0.02c0.08,0.33,0.15,0.65,0.22,0.98c0.03,0.15,0.06,0.29,0.1,0.42
			c0.68,3.1,1.05,6.34,1.11,9.74v0.11c0,14.36-3.61,26.61-10.82,36.74v0.03c-0.12,0.16-0.22,0.33-0.32,0.5
			c-7.49,10.5-16.45,15.77-26.87,15.83h-0.13c-0.43,0-0.8,0-1.09,0h-0.08c-0.08,0-0.17,0-0.27,0h-0.08
			c-9.93-0.45-18.48-5.81-25.65-16.07c-0.08-0.14-0.16-0.27-0.27-0.4v-0.03c-7.15-10.09-10.66-22.27-10.53-36.53v-0.18
			c0.03-5.56,0.92-10.71,2.67-15.43c0.03-0.09,0.06-0.19,0.08-0.29c0.33-0.89,0.71-1.76,1.11-2.62c0.12-0.19,0.23-0.39,0.32-0.61
			c0.02-0.06,0.03-0.13,0.06-0.18c1.69-3.46,3.91-6.67,6.64-9.63l0.08-0.08c0.03-0.03,0.05-0.05,0.08-0.08
			c0.06-0.08,0.11-0.16,0.16-0.24c0.35-0.37,0.7-0.74,1.06-1.09c6.96-6.86,15.15-10.4,24.57-10.61H249
			c0.31-0.01,0.63-0.02,0.95-0.02H250c0.23,0.01,0.46,0.02,0.69,0.02h0.05c0.04,0,0.07,0,0.11,0h0.05c0.55,0.01,1.1,0.03,1.64,0.06
			c2.5,0.13,4.91,0.51,7.23,1.14c0.2,0.06,0.4,0.12,0.61,0.18l-0.05-0.03c0.13,0.04,0.26,0.08,0.39,0.11
			c0.19,0.06,0.38,0.12,0.56,0.18c0.03,0.01,0.06,0.02,0.08,0.03c5.16,1.7,9.88,4.63,14.14,8.78l0.02,0.03
			C275.55,200.28,275.59,200.31,275.62,200.33z"/>
	</g>
</g>
</svg>
