<?xml version="1.0" encoding="utf-8"?>
<!-- Generator: Adobe Illustrator 26.0.2, SVG Export Plug-In . SVG Version: 6.00 Build 0)  -->
<svg version="1.1" id="_x2014_ÎÓÈ_x5F_1" xmlns="http://www.w3.org/2000/svg" xmlns:xlink="http://www.w3.org/1999/xlink"
	 x="0px" y="0px" viewBox="0 0 319.32 296.44" style="enable-background:new 0 0 319.32 296.44;" xml:space="preserve">
<style type="text/css">
	.st0{fill:#FFFFFF;}
</style>
<g>
	<g>
		<g>
			<path class="st0" d="M184.59,165.15c-2.91,0-5.28-2.36-5.28-5.28V145.3c0-10.82-8.8-19.62-19.62-19.62H97.05
				c-10.82,0-19.62,8.8-19.62,19.62v13.66c0,2.91-2.36,5.28-5.28,5.28c-2.91,0-5.27-2.36-5.27-5.28V145.3
				c0-16.64,13.53-30.16,30.16-30.16h62.64c16.64,0,30.16,13.53,30.16,30.16v14.57C189.86,162.78,187.49,165.15,184.59,165.15z"/>
		</g>
		<g>
			<path class="st0" d="M97.05,125.68c-2.91,0-5.27-2.36-5.27-5.28c0-2.91,2.36-5.27,5.27-5.27h62.63c2.91,0,5.28,2.36,5.28,5.27
				c0,2.91-2.36,5.28-5.28,5.28H97.05z"/>
		</g>
		<g>
			<path class="st0" d="M128.37,105.61c-15.74,0-28.54-12.81-28.54-28.55s12.8-28.54,28.54-28.54c15.74,0,28.54,12.8,28.54,28.54
				S144.11,105.61,128.37,105.61z M128.37,59.06c-9.92,0-18,8.08-18,18c0,9.93,8.08,18,18,18c9.92,0,18-8.08,18-18
				C146.36,67.14,138.29,59.06,128.37,59.06z"/>
		</g>
	</g>
	<g>
		<g>
			<path class="st0" d="M128.37,228c-61.24,0-111.06-49.82-111.06-111.06c0-61.24,49.82-111.06,111.06-111.06
				c61.23,0,111.05,49.82,111.05,111.06C239.43,178.18,189.61,228,128.37,228z M128.37,16.42c-55.42,0-100.51,45.1-100.51,100.52
				s45.09,100.52,100.51,100.52s100.51-45.1,100.51-100.52S183.79,16.42,128.37,16.42z"/>
		</g>
		<g>
			<path class="st0" d="M279.88,290.57c-5.07,0-9.83-1.97-13.41-5.55l-77.19-77.19c-1-0.99-1.55-2.32-1.55-3.72
				c0-1.41,0.54-2.74,1.55-3.73l22.52-22.53c0.95-0.95,2.31-1.49,3.73-1.49c1.42,0,2.78,0.54,3.72,1.49l77.19,77.2
				c7.39,7.39,7.39,19.43,0,26.81l-3.16,3.16C289.71,288.6,284.95,290.57,279.88,290.57z M200.04,204.53l73.89,73.04
				c1.59,1.59,3.71,2.46,5.96,2.46c2.25,0,4.36-0.87,5.95-2.46l3.16-3.16c3.27-3.29,3.27-8.62,0-11.91l-73.46-73.46L200.04,204.53z"
				/>
		</g>
	</g>
</g>
</svg>
