<?xml version="1.0" encoding="utf-8"?>
<!-- Generator: Adobe Illustrator 26.0.2, SVG Export Plug-In . SVG Version: 6.00 Build 0)  -->
<svg version="1.1" id="_x2014_ÎÓÈ_x5F_1" xmlns="http://www.w3.org/2000/svg" xmlns:xlink="http://www.w3.org/1999/xlink"
	 x="0px" y="0px" viewBox="0 0 532.18 714.5" style="enable-background:new 0 0 532.18 714.5;" xml:space="preserve">
<style type="text/css">
	.st0{fill:#FFFFFF;}
</style>
<g>
	<g>
		<path class="st0" d="M200.58,423.8C140.29,531.14,83.81,622.79,83.81,622.79l62.31,85.07l113.75-184.95l-45.79-75.17
			C214.08,447.74,211.17,443.38,200.58,423.8z"/>
	</g>
	<path class="st0" d="M221.85,445.13l-20.57-38.2c-1.98-3.67-29.37-54.64-39.48-74.1c-15.54-29.32-25.47-48.85-26.59-52.25
		c-0.24-0.73-0.54-1.59-0.89-2.6c-5.63-16.26-22.78-65.73,2.1-150.52c8.2-27.97,18.1-51.47,29.43-69.87l0.08-0.13l0.06-0.14
		c0.53-1.21,1.09-2.39,1.67-3.56c-7.37,20.05-5.67,45.06,5.16,74.82c7.68,21.11,18.7,41.27,26.32,54.59
		c4.71,8.24,9.78,16.76,15.51,26.06c4.41,7.15,16.05,26.73,34.61,58.2c4.01,6.8,8.26,14.01,12.72,21.58l1.74,2.95
		c17.63,29.95,40.04,68.12,66.61,113.45l1.48,2.53c13.06,22.27,26.17,44.66,38.75,66.14c43.73,74.69,73.06,124.85,77.83,133.03
		l-67.06,99.96L221.85,445.13z M334.29,396.11c-11.79-20.02-24.42-42.38-36.45-62.37c-10.16-16.89-19.46-32.46-27.92-46.78
		c23.53-41.53,39.94-69.45,45.03-77.71c5.68-9.21,10.75-17.73,15.51-26.06c8.37-14.65,20.39-36.76,28.06-59.58
		c8.87-26.41,10.29-49.04,4.26-67.53c9.66,15.37,20.65,38.14,30.4,71.38c24.88,84.82,7.75,134.28,2.11,150.54
		c-0.35,1-0.65,1.86-0.88,2.59C392.75,285.64,370.14,329.21,334.29,396.11z"/>
	<path class="st0" d="M328.97,21.75c0,0,0.12,0.06,0.4,0.2c-4.63-2.82-9.59-5.19-14.66-7.13c-14.85-5.65-30.94-7.79-46.82-8.13
		c-1.13-0.03-2.48-0.04-3.6-0.05c-1.13,0.01-2.26,0.02-3.38,0.05c-15.87,0.34-31.86,2.49-46.71,8.13
		c-5.07,1.94-9.98,4.31-14.61,7.13c0.28-0.14,0.43-0.2,0.43-0.2c-37.06,24.61-36.21,64.38-22.76,101.37
		c29.9-22.81,59.94-30.79,87.03-30.97c27.89,0.18,57.33,8.16,87.23,30.97C364.98,86.13,366.03,46.36,328.97,21.75z"/>
</g>
</svg>
