<?xml version="1.0" encoding="utf-8"?>
<!-- Generator: Adobe Illustrator 26.0.3, SVG Export Plug-In . SVG Version: 6.00 Build 0)  -->
<svg version="1.1" id="Layer_1" xmlns="http://www.w3.org/2000/svg" xmlns:xlink="http://www.w3.org/1999/xlink" x="0px" y="0px"
	 viewBox="0 0 975.55 208" style="enable-background:new 0 0 975.55 208;" xml:space="preserve">
<style type="text/css">
	.st0{fill:#FFFFFF;}
</style>
<g>
	<g>
		<g>
			<path class="st0" d="M183.33,135.49c-8.16,1.32-12.33,7.34-12.33,17.95c0,10.67,5.56,17.8,14.07,17.8
				c3.96,0,7.56-1.32,15.13-5.03v8.63c-9.08,4.17-14.43,5.46-21.75,5.46c-7.93,0-13.5-2.1-18.05-6.74c-4.67-4.67-7-10.83-7-17.7
				c0-15.27,11.3-25.6,27.82-25.6c10.97,0,18.51,5.01,18.51,12.37c0,4.74-3.51,8-8.72,8c-2.67,0-4.87-0.7-7.68-2.33V135.49z"/>
			<path class="st0" d="M143.07,155.85c7.31-9.22,9.9-12.94,9.9-17.47c0-4.51-3.58-8.14-8.36-8.14c-2.94,0-5.6,1.39-6.89,2.84v18.78
				l-11.98,15.97v-36.4h-11.39l-18.94,31.4v-31.4h-6.55l-17.19,4.19v4.39l9.38,0.95v38.51h12.12l18.17-29.85v29.85h13.27
				L143.07,155.85z"/>
			<path class="st0" d="M35.46,173.55c1.29,0.06,1.86,0.06,2.67,0.06c9.76,0,15-6.09,15-17.76c0-9.88-4.28-15.13-12.19-15.13
				c-1.32,0-2.7,0.16-5.48,0.5V173.55z M35.46,194.59l7.86,1.75l0,4.46H12.49v-4.46l7.03-1.75v-53.87H11.7v-4.62l18.86-5.73h4.9
				v6.43c8.83-5.26,11.87-6.19,16.4-6.19c10.47,0,18.19,9.65,18.19,23.02c0,15.45-10.31,25.84-26.55,25.84
				c-1.84,0-4.89-0.11-8.04-0.47V194.59z"/>
		</g>
		<rect x="125.76" y="91.03" class="st0" width="47.21" height="11.8"/>
		<path class="st0" d="M253.19,67.43V32.01h-23.88V17.64h-9.26V8.42h-47.08v82.61h92.19v-23.6H253.19z M250.83,34.37v33.06h-21.52
			V34.37H250.83z M175.33,57.96h24.71v9.47h-24.71V57.96z M175.33,20h42.36v12.01h-42.36V20z M217.69,34.37v33.06h-15.3V55.6
			l-27.06,0l0-21.24H217.69z M175.33,69.79h24.71v18.89h-24.71V69.79z M202.39,69.79h15.3v18.89h-15.3V69.79z M220.05,69.79h6.9
			v18.89h-6.9V69.79z M220.05,67.43V34.37h6.9v33.06H220.05z M226.95,20v12.01h-6.9V20H226.95z M175.33,10.78h42.36v6.86h-42.36
			V10.78z M229.31,88.67V69.79h21.52v18.89H229.31z M262.81,88.67h-9.62V69.79h9.62V88.67z"/>
	</g>
	<rect x="313.45" y="5.45" class="st0" width="3.35" height="198.7"/>
	<g>
		<path class="st0" d="M347.14,183.79v-50.18h18.93c3.33,0,5.88,0.16,7.63,0.48c2.46,0.41,4.53,1.19,6.2,2.34
			c1.67,1.15,3.01,2.77,4.02,4.84c1.02,2.08,1.52,4.36,1.52,6.85c0,4.27-1.36,7.88-4.07,10.83c-2.72,2.96-7.62,4.43-14.72,4.43
			h-12.87v20.4H347.14z M353.78,157.47h12.97c4.29,0,7.34-0.8,9.14-2.4c1.8-1.6,2.7-3.84,2.7-6.74c0-2.1-0.53-3.9-1.59-5.39
			c-1.06-1.49-2.46-2.48-4.19-2.96c-1.12-0.3-3.18-0.44-6.2-0.44h-12.84V157.47z"/>
		<path class="st0" d="M399.6,183.79l-11.12-36.35h6.37l5.78,20.98l2.16,7.8c0.09-0.39,0.72-2.89,1.88-7.5l5.79-21.29h6.33
			l5.44,21.08l1.81,6.95l2.09-7.02l6.23-21.02h5.99l-11.36,36.35h-6.4l-5.78-21.77l-1.4-6.2l-7.36,27.96H399.6z"/>
		<path class="st0" d="M479.9,166.2l6.64,1.68c-1.39,5.45-3.9,9.61-7.51,12.48c-3.62,2.86-8.04,4.3-13.26,4.3
			c-5.41,0-9.81-1.1-13.19-3.3s-5.97-5.39-7.74-9.57s-2.65-8.66-2.65-13.45c0-5.23,1-9.78,3-13.67c2-3.89,4.84-6.85,8.52-8.87
			s7.74-3.03,12.17-3.03c5.02,0,9.24,1.28,12.66,3.83c3.42,2.56,5.81,6.15,7.15,10.78l-6.54,1.54c-1.16-3.65-2.85-6.31-5.07-7.98
			c-2.21-1.67-5-2.5-8.35-2.5c-3.86,0-7.08,0.92-9.67,2.77s-4.41,4.33-5.46,7.44s-1.57,6.33-1.57,9.64c0,4.27,0.62,7.99,1.87,11.18
			c1.24,3.18,3.18,5.56,5.8,7.14s5.46,2.36,8.52,2.36c3.72,0,6.87-1.07,9.45-3.22C477.24,173.6,478.99,170.42,479.9,166.2z"/>
		<path class="st0" d="M525.28,183.79v-44.26h-16.53v-5.92h39.77v5.92h-16.6v44.26H525.28z"/>
		<path class="st0" d="M578.15,183.79v-5.34c-2.83,4.11-6.67,6.16-11.53,6.16c-2.15,0-4.15-0.41-6.01-1.23
			c-1.86-0.82-3.24-1.85-4.14-3.1s-1.53-2.77-1.9-4.57c-0.25-1.21-0.38-3.13-0.38-5.75v-22.52h6.16v20.16c0,3.22,0.12,5.39,0.38,6.5
			c0.39,1.62,1.21,2.89,2.46,3.82c1.25,0.92,2.81,1.39,4.65,1.39c1.85,0,3.58-0.47,5.2-1.42c1.62-0.95,2.77-2.24,3.44-3.87
			c0.67-1.63,1.01-4,1.01-7.1v-19.48h6.16v36.35H578.15z M559.33,140.32v-7.02h6.43v7.02H559.33z M572.1,140.32v-7.02h6.43v7.02
			H572.1z"/>
		<path class="st0" d="M593.04,183.79v-36.35h5.54v5.51c1.41-2.58,2.72-4.28,3.92-5.1c1.2-0.82,2.52-1.23,3.95-1.23
			c2.08,0,4.19,0.66,6.33,1.98l-2.12,5.72c-1.51-0.89-3.01-1.33-4.52-1.33c-1.35,0-2.56,0.41-3.63,1.22s-1.84,1.93-2.29,3.37
			c-0.68,2.19-1.03,4.59-1.03,7.19v19.03H593.04z"/>
		<path class="st0" d="M616.27,183.79v-50.18h6.16v28.61l14.58-14.79h7.98l-13.9,13.49l15.3,22.86h-7.6l-12.01-18.59l-4.35,4.18
			v14.41H616.27z"/>
		<path class="st0" d="M651.11,140.7v-7.08h6.16v7.08H651.11z M651.11,183.79v-36.35h6.16v36.35H651.11z"/>
		<path class="st0" d="M666.17,197.79l-0.68-5.78c1.35,0.36,2.52,0.55,3.53,0.55c1.37,0,2.46-0.23,3.29-0.68
			c0.82-0.46,1.49-1.1,2.02-1.92c0.39-0.62,1.02-2.15,1.88-4.59c0.11-0.34,0.3-0.84,0.55-1.51l-13.79-36.42h6.64l7.56,21.05
			c0.98,2.67,1.86,5.48,2.64,8.42c0.71-2.83,1.55-5.59,2.53-8.28l7.77-21.19h6.16l-13.83,36.97c-1.48,3.99-2.64,6.74-3.46,8.25
			c-1.1,2.03-2.35,3.52-3.77,4.47c-1.42,0.95-3.1,1.42-5.07,1.42C668.95,198.54,667.63,198.29,666.17,197.79z"/>
		<path class="st0" d="M726.17,172.08l6.37,0.79c-1,3.72-2.86,6.61-5.58,8.66s-6.18,3.08-10.41,3.08c-5.32,0-9.53-1.64-12.65-4.91
			c-3.11-3.27-4.67-7.87-4.67-13.78c0-6.12,1.57-10.86,4.72-14.24c3.15-3.38,7.23-5.07,12.25-5.07c4.86,0,8.83,1.65,11.91,4.96
			c3.08,3.31,4.62,7.96,4.62,13.97c0,0.37-0.01,0.91-0.03,1.64H705.6c0.23,3.99,1.36,7.05,3.39,9.17c2.03,2.12,4.56,3.18,7.6,3.18
			c2.26,0,4.19-0.59,5.78-1.78C723.96,176.58,725.23,174.68,726.17,172.08z M705.94,162.12h20.3c-0.27-3.06-1.05-5.35-2.33-6.88
			c-1.96-2.37-4.51-3.56-7.63-3.56c-2.83,0-5.21,0.95-7.14,2.84C707.21,156.42,706.14,158.95,705.94,162.12z"/>
		<path class="st0" d="M750.73,183.79L770,133.61h7.15l20.54,50.18h-7.56l-5.85-15.2h-20.98l-5.51,15.2H750.73z M765.21,163.18
			h17.01l-5.24-13.9c-1.6-4.22-2.78-7.69-3.56-10.41c-0.64,3.22-1.54,6.41-2.7,9.58L765.21,163.18z"/>
		<path class="st0" d="M801.87,183.79v-50.18h6.16v50.18H801.87z"/>
		<path class="st0" d="M841.19,183.79v-5.34c-2.83,4.11-6.67,6.16-11.53,6.16c-2.15,0-4.15-0.41-6.01-1.23
			c-1.86-0.82-3.24-1.85-4.14-3.1s-1.53-2.77-1.9-4.57c-0.25-1.21-0.38-3.13-0.38-5.75v-22.52h6.16v20.16c0,3.22,0.12,5.39,0.38,6.5
			c0.39,1.62,1.21,2.89,2.46,3.82c1.25,0.92,2.81,1.39,4.65,1.39c1.85,0,3.58-0.47,5.2-1.42c1.62-0.95,2.77-2.24,3.44-3.87
			c0.67-1.63,1.01-4,1.01-7.1v-19.48h6.16v36.35H841.19z"/>
		<path class="st0" d="M856.14,183.79v-36.35h5.51v5.1c1.14-1.78,2.66-3.21,4.55-4.3c1.89-1.08,4.05-1.63,6.47-1.63
			c2.69,0,4.9,0.56,6.62,1.68c1.72,1.12,2.94,2.68,3.65,4.69c2.88-4.24,6.62-6.37,11.23-6.37c3.61,0,6.38,1,8.32,2.99
			c1.94,2,2.91,5.07,2.91,9.22v24.95h-6.13v-22.9c0-2.46-0.2-4.24-0.6-5.32c-0.4-1.08-1.12-1.96-2.17-2.62
			c-1.05-0.66-2.28-0.99-3.7-0.99c-2.56,0-4.68,0.85-6.37,2.55c-1.69,1.7-2.53,4.42-2.53,8.16v21.12h-6.16v-23.62
			c0-2.74-0.5-4.79-1.51-6.16s-2.65-2.05-4.93-2.05c-1.73,0-3.34,0.46-4.81,1.37c-1.47,0.91-2.54,2.25-3.2,4
			c-0.66,1.76-0.99,4.29-0.99,7.6v18.86H856.14z"/>
		<path class="st0" d="M914.33,183.79v-36.35h5.54v5.17c2.67-3.99,6.53-5.99,11.57-5.99c2.19,0,4.2,0.39,6.04,1.18
			s3.21,1.82,4.12,3.1c0.91,1.28,1.55,2.8,1.92,4.55c0.23,1.14,0.34,3.14,0.34,5.99v22.35h-6.16v-22.11c0-2.51-0.24-4.39-0.72-5.63
			c-0.48-1.24-1.33-2.24-2.55-2.98c-1.22-0.74-2.65-1.11-4.3-1.11c-2.62,0-4.89,0.83-6.79,2.5s-2.86,4.83-2.86,9.48v19.85H914.33z"
			/>
		<path class="st0" d="M953.13,140.7v-7.08h6.16v7.08H953.13z M953.13,183.79v-36.35h6.16v36.35H953.13z"/>
	</g>
</g>
</svg>
