<?xml version="1.0" encoding="utf-8"?>
<!-- Generator: Adobe Illustrator 25.4.1, SVG Export Plug-In . SVG Version: 6.00 Build 0)  -->
<svg version="1.1" id="Layer_1_1605807789527" xmlns="http://www.w3.org/2000/svg" xmlns:xlink="http://www.w3.org/1999/xlink"
	 x="0px" y="0px" viewBox="0 0 80 61.11" style="enable-background:new 0 0 80 61.11;" xml:space="preserve">
<style type="text/css">
	.st0{fill:#FFFFFF;}
</style>
<g transform="translate(1, 1)">
	<path vector-effect="non-scaling-stroke" class="st0" d="M51.16,39.76c-2.37,0.43-3.66,2.13-3.66,5.21s1.61,5.21,4.2,5.21
		c1.18,0,2.26-0.43,4.52-1.49v2.55c-2.69,1.17-4.3,1.59-6.45,1.59c-2.37,0-3.98-0.64-5.38-2.02c-1.4-1.38-2.04-3.19-2.04-5.21
		c0-4.46,3.33-7.44,8.28-7.44c3.23,0,5.49,1.49,5.49,3.61c0,1.38-1.08,2.34-2.58,2.34c-0.75,0-1.4-0.21-2.26-0.64v-3.72H51.16z
		 M39.22,45.71c2.15-2.66,2.9-3.83,2.9-5.1c0-1.28-1.08-2.34-2.47-2.34c-0.86,0-1.61,0.43-2.04,0.85v5.53l-3.55,4.68V38.7h-3.33
		l-5.7,9.04v-9.14h-1.94l-5.06,1.28v1.28l2.8,0.32v11.27h3.55l5.38-8.72v8.72h3.98L39.22,45.71z M7.27,41.46
		c0.86-0.11,1.18-0.11,1.61-0.11c2.37,0,3.66,1.49,3.66,4.46c0,3.4-1.51,5.21-4.41,5.21c-0.22,0-0.43,0-0.75,0v-9.57H7.27z
		 M7.27,52.52c0.97,0.11,1.83,0.11,2.37,0.11c4.84,0,7.85-3.08,7.85-7.55c0-3.93-2.26-6.7-5.38-6.7c-1.29,0-2.26,0.32-4.84,1.81
		v-1.91h-1.4l-5.59,1.7v1.38h2.37v15.73l-2.15,0.53v1.28h9.14v-1.28l-2.37-0.53V52.52z M34.05,30.19h13.98v-3.4H34.05V30.19z
		 M77.73,19.03v7.76H48.04V0.21H63.2V3.3h3.12v4.57h7.42v11.16H77.73z M66.32,9.04v10.1h6.35V9.04H66.32z M49.11,19.03h7.31v-2.76
		h-7.31V19.03z M49.11,7.87h12.91V4.36H49.11V7.87z M49.11,9.04v6.17h8.39v3.83h4.52V9.04H49.11z M49.11,25.62h7.31v-5.53h-7.31
		V25.62z M57.5,25.62h4.52v-5.53H57.5V25.62z M63.2,25.62h2.04v-5.53H63.2V25.62z M65.25,19.03V9.04H63.2v10.1h2.04V19.03z
		 M63.2,4.36v3.51h2.04V4.36H63.2z M49.11,3.3h12.91V1.28H49.11V3.3z M72.67,25.62v-5.53h-6.35v5.53L72.67,25.62z M76.65,20.09h-2.8
		v5.53h2.8V20.09z"/>
</g>
</svg>
