<?xml version="1.0" encoding="utf-8"?>
<!-- Generator: Adobe Illustrator 24.3.0, SVG Export Plug-In . SVG Version: 6.00 Build 0)  -->
<svg version="1.1" id="Layer_1" xmlns="http://www.w3.org/2000/svg" xmlns:xlink="http://www.w3.org/1999/xlink" x="0px" y="0px"
	 viewBox="0 0 494.83 165.52" style="enable-background:new 0 0 494.83 165.52;" xml:space="preserve">
<style type="text/css">
	.st0{fill:#FFFFFF;}
</style>
<g transform="translate(1, 1)">
	<path vector-effect="non-scaling-stroke" class="st0" d="M127.54,107.15c-5.59,1-8.63,5.02-8.63,12.29s3.81,12.29,9.9,12.29
		c2.79,0,5.33-1,10.66-3.51v6.02c-6.35,2.76-10.15,3.76-15.23,3.76c-5.59,0-9.39-1.51-12.69-4.77s-4.82-7.53-4.82-12.29
		c0-10.54,7.87-17.56,19.55-17.56c7.62,0,12.95,3.51,12.95,8.53c0,3.26-2.54,5.52-6.09,5.52c-1.78,0-3.3-0.5-5.33-1.51v-8.78H127.54
		z M99.36,121.2c5.08-6.27,6.85-9.03,6.85-12.04s-2.54-5.52-5.84-5.52c-2.03,0-3.81,1-4.82,2.01v13.05l-8.38,11.04v-25.09H79.3
		l-13.46,21.33v-21.58h-4.57l-11.93,3.01v3.01l6.6,0.75v26.59h8.38l12.69-20.57v20.57h9.39L99.36,121.2z M23.96,111.17
		c2.03-0.25,2.79-0.25,3.81-0.25c5.59,0,8.63,3.51,8.63,10.54c0,8.03-3.55,12.29-10.41,12.29c-0.51,0-1.02,0-1.78,0v-22.58H23.96z
		 M23.96,137.26c2.28,0.25,4.32,0.25,5.59,0.25c11.42,0,18.53-7.28,18.53-17.81c0-9.28-5.33-15.81-12.69-15.81
		c-3.05,0-5.33,0.75-11.42,4.27v-4.52h-3.3l-13.2,4.01v3.26h5.59v37.13l-5.08,1.25v3.01h21.58v-3.01l-5.59-1.25V137.26z
		 M87.17,84.57h33v-8.03h-33L87.17,84.57z M190.24,58.23v18.31h-70.07V13.82h35.8v7.28h7.36v10.79h17.52v26.34H190.24z
		 M163.33,34.65v23.83h14.98V34.65H163.33z M122.71,58.23h17.26v-6.52h-17.26V58.23z M122.71,31.89h30.46v-8.28h-30.46V31.89z
		 M122.71,34.65V49.2h19.8v9.03h10.66V34.65H122.71z M122.71,73.79h17.26V60.74h-17.26V73.79z M142.52,73.79h10.66V60.74h-10.66
		V73.79z M155.97,73.79h4.82V60.74h-4.82V73.79z M160.79,58.23V34.65h-4.82v23.83h4.82V58.23z M155.97,23.61v8.28h4.82v-8.28H155.97
		z M122.71,21.1h30.46v-4.77h-30.46V21.1z M178.31,73.79V60.74h-14.98v13.05L178.31,73.79z M187.7,60.74h-6.6v13.05h6.6V60.74z"/>
</g>
<g>
	<path class="st0" d="M238.26,59.2h11.58l24.46,57.48h-13.13l-5.22-12.8h-24.13l-5.22,12.8h-12.8L238.26,59.2z M251.47,92.79
		l-7.58-18.51l-7.58,18.51H251.47z"/>
	<path class="st0" d="M279.1,57.16h12.39v59.52H279.1V57.16z"/>
	<path class="st0" d="M299.56,101.27V72.98h12.39v24.38c0,5.87,2.77,8.89,7.5,8.89s7.75-3.02,7.75-8.89V72.98h12.39v43.7H327.2v-6.2
		c-2.85,3.67-6.52,7.01-12.8,7.01C305.02,117.49,299.56,111.3,299.56,101.27z"/>
	<path class="st0" d="M347.41,72.98h12.39v6.2c2.85-3.67,6.6-7.01,12.88-7.01c5.71,0,10.03,2.53,12.31,6.93
		c3.83-4.48,8.4-6.93,14.35-6.93c9.21,0,14.76,5.54,14.76,16.06v28.45h-12.39V92.3c0-5.87-2.61-8.89-7.26-8.89
		c-4.65,0-7.5,3.02-7.5,8.89v24.38h-12.39V92.3c0-5.87-2.61-8.89-7.26-8.89c-4.65,0-7.5,3.02-7.5,8.89v24.38h-12.39V72.98z"/>
	<path class="st0" d="M421.59,72.98h12.39v6.2c2.85-3.67,6.52-7.01,12.8-7.01c9.38,0,14.84,6.2,14.84,16.22v28.29h-12.39V92.3
		c0-5.87-2.77-8.89-7.5-8.89c-4.73,0-7.75,3.02-7.75,8.89v24.38h-12.39V72.98z"/>
	<path class="st0" d="M469.36,57.16h13.04v11.01h-13.04V57.16z M469.69,72.98h12.39v43.7h-12.39V72.98z"/>
</g>
</svg>
