<?xml version="1.0" encoding="utf-8"?>
<!-- Generator: Adobe Illustrator 25.4.1, SVG Export Plug-In . SVG Version: 6.00 Build 0)  -->
<svg version="1.1" id="Layer_1" xmlns="http://www.w3.org/2000/svg" xmlns:xlink="http://www.w3.org/1999/xlink" x="0px" y="0px"
	 viewBox="0 0 494.83 165.52" style="enable-background:new 0 0 494.83 165.52;" xml:space="preserve">
<style type="text/css">
	.st0{fill:#E3731C;}
	.st1{fill:#E669A2;}
	.st2{fill:#F3BC87;}
	.st3{fill:#EE9C34;}
	.st4{fill:#F3BE26;}
	.st5{fill:#DB4E18;}
	.st6{fill:#E88C14;}
	.st7{fill:#D1390D;}
	.st8{fill:#D85604;}
	.st9{fill:#C22303;}
	.st10{fill:#C14303;}
	.st11{fill:#AD1B02;}
</style>
<g>
	<g>
		<path d="M240.61,54.63h11.58l24.46,57.48h-13.13l-5.22-12.8h-24.13l-5.22,12.8h-12.8L240.61,54.63z M253.82,88.22l-7.58-18.51
			l-7.58,18.51H253.82z"/>
		<path d="M281.45,52.59h12.39v59.52h-12.39V52.59z"/>
		<path d="M301.91,96.7V68.41h12.39v24.38c0,5.87,2.77,8.89,7.5,8.89s7.75-3.02,7.75-8.89V68.41h12.39v43.7h-12.39v-6.2
			c-2.85,3.67-6.52,7.01-12.8,7.01C307.37,112.92,301.91,106.73,301.91,96.7z"/>
		<path d="M349.76,68.41h12.39v6.2c2.85-3.67,6.6-7.01,12.88-7.01c5.71,0,10.03,2.53,12.31,6.93c3.83-4.48,8.4-6.93,14.35-6.93
			c9.21,0,14.76,5.54,14.76,16.06v28.45h-12.39V87.73c0-5.87-2.61-8.89-7.26-8.89c-4.65,0-7.5,3.02-7.5,8.89v24.38h-12.39V87.73
			c0-5.87-2.61-8.89-7.26-8.89c-4.65,0-7.5,3.02-7.5,8.89v24.38h-12.39V68.41z"/>
		<path d="M423.95,68.41h12.39v6.2c2.85-3.67,6.52-7.01,12.8-7.01c9.38,0,14.84,6.2,14.84,16.22v28.29h-12.39V87.73
			c0-5.87-2.77-8.89-7.5-8.89c-4.73,0-7.75,3.02-7.75,8.89v24.38h-12.39V68.41z"/>
		<path d="M471.72,52.59h13.04V63.6h-13.04V52.59z M472.04,68.41h12.39v43.7h-12.39V68.41z"/>
	</g>
	<g>
		<polygon class="st0" points="185.57,55.99 185.57,30.5 168.21,30.5 168.21,20.15 161.48,20.15 161.48,13.52 127.27,13.52 
			127.27,20.15 127.27,30.5 127.27,47.48 127.27,55.99 127.27,72.98 148.67,72.98 161.48,72.98 168.21,72.98 185.57,72.98 
			194.27,72.98 194.27,55.99 		"/>
		<g>
			<g>
				<path d="M134.8,104.98c-5.93,0.95-8.96,5.29-8.96,12.92c0,7.68,4.04,12.82,10.23,12.82c2.88,0,5.5-0.95,11-3.62v6.21
					c-6.6,3-10.49,3.93-15.81,3.93c-5.76,0-9.81-1.51-13.12-4.86c-3.39-3.36-5.09-7.8-5.09-12.74c0-10.99,8.21-18.43,20.22-18.43
					c7.97,0,13.45,3.61,13.45,8.9c0,3.41-2.55,5.76-6.34,5.76c-1.94,0-3.54-0.5-5.58-1.68L134.8,104.98L134.8,104.98z"/>
				<path d="M105.54,119.65c5.32-6.64,7.19-9.31,7.19-12.57c0-3.24-2.6-5.86-6.07-5.86c-2.14,0-4.07,1-5.01,2.04v13.52l-8.71,11.5
					v-26.21h-8.28l-13.76,22.6v-22.6h-4.76l-12.5,3.02v3.16l6.82,0.69v27.72h8.81l13.2-21.49v21.49h9.65L105.54,119.65z"/>
				<path d="M27.33,132.38c0.94,0.04,1.35,0.04,1.94,0.04c7.1,0,10.9-4.38,10.9-12.78c0-7.11-3.11-10.89-8.86-10.89
					c-0.96,0-1.96,0.11-3.99,0.36L27.33,132.38L27.33,132.38z M27.33,147.53l5.71,1.26V152H10.64v-3.21l5.11-1.26v-38.78h-5.68
					v-3.33l13.71-4.12h3.56v4.63c6.42-3.78,8.63-4.45,11.92-4.45c7.61,0,13.22,6.95,13.22,16.57c0,11.12-7.49,18.6-19.29,18.6
					c-1.33,0-3.56-0.08-5.85-0.34L27.33,147.53L27.33,147.53z"/>
			</g>
			<g>
				<rect x="185.57" y="55.99" class="st1" width="8.7" height="16.99"/>
				<rect x="161.48" y="20.15" class="st2" width="6.73" height="10.34"/>
				<rect x="127.27" y="13.52" class="st3" width="34.21" height="6.64"/>
				<rect x="127.27" y="20.15" class="st0" width="34.21" height="10.34"/>
				<rect x="168.21" y="30.5" class="st4" width="17.35" height="25.5"/>
				<rect x="168.21" y="55.99" class="st5" width="17.35" height="16.99"/>
				<rect x="161.48" y="30.5" class="st6" width="6.73" height="25.5"/>
				<rect x="161.48" y="55.99" class="st7" width="6.73" height="16.99"/>
				<polygon class="st8" points="148.67,55.99 161.48,55.99 161.48,30.5 127.27,30.5 127.27,47.48 148.67,47.48 				"/>
				<rect x="148.67" y="55.99" class="st9" width="12.82" height="16.99"/>
				<rect x="127.27" y="47.48" class="st10" width="21.4" height="8.51"/>
				<rect x="127.27" y="55.99" class="st11" width="21.4" height="16.99"/>
				<rect x="92.96" y="72.98" class="st11" width="34.31" height="8.49"/>
			</g>
		</g>
	</g>
</g>
</svg>
