<?xml version="1.0" encoding="utf-8"?>
<!-- Generator: Adobe Illustrator 24.3.0, SVG Export Plug-In . SVG Version: 6.00 Build 0)  -->
<svg version="1.1" id="Layer_1" xmlns="http://www.w3.org/2000/svg" xmlns:xlink="http://www.w3.org/1999/xlink" x="0px" y="0px"
	 viewBox="0 0 75 75" style="enable-background:new 0 0 75 75;" xml:space="preserve">
<style type="text/css">
	.st0{fill:#FFB600;}
</style>
<g>
	<path class="st0" d="M21.8,44.6c0,0.1-0.1,0.2-0.1,0.3c0,0.1-0.1,0.1-0.1,0.2c0,0.1-0.1,0.2-0.1,0.3c0,0,0,0.1-0.1,0.1
		c-0.1,0.2-0.1,0.3-0.2,0.5c0,0,0,0.1,0,0.1c0,0.1-0.1,0.3-0.1,0.4c0,0.1,0,0.1-0.1,0.2c0,0.1-0.1,0.2-0.1,0.3c0,0.1,0,0.1-0.1,0.2
		c0,0.1-0.1,0.2-0.1,0.3c0,0.1,0,0.1-0.1,0.2c0,0.1,0,0.2-0.1,0.3c0,0.1,0,0.1,0,0.2c0,0.1,0,0.2-0.1,0.3c0,0.1,0,0.1,0,0.2
		c0,0.1,0,0.2,0,0.3c0,0.1,0,0.1,0,0.2c0,0.1,0,0.2,0,0.3c0,0.1,0,0.1,0,0.2c0,0.1,0,0.2,0,0.3c0,0.1,0,0.1,0,0.2c0,0.1,0,0.2,0,0.4
		c0,0.1,0,0.1,0,0.2c0,0.2,0,0.4,0,0.5v7.6c0,0.4,0.3,0.7,0.7,0.7h6.6h20.1h6.5c0.4,0,0.7-0.3,0.7-0.7v-7.6c0-0.2,0-0.4,0-0.5
		c0-0.1,0-0.1,0-0.2c0-0.1,0-0.2,0-0.4c0-0.1,0-0.1,0-0.2c0-0.1,0-0.2,0-0.3c0-0.1,0-0.1,0-0.2c0-0.1,0-0.2,0-0.3c0-0.1,0-0.1,0-0.2
		c0-0.1,0-0.2,0-0.3c0-0.1,0-0.1,0-0.2c0-0.1,0-0.2-0.1-0.3c0-0.1,0-0.1,0-0.2c0-0.1,0-0.2-0.1-0.3c0-0.1,0-0.1-0.1-0.2
		c0-0.1-0.1-0.2-0.1-0.3c0-0.1,0-0.1-0.1-0.2c0-0.1-0.1-0.2-0.1-0.3c0-0.1,0-0.1-0.1-0.2c0-0.1-0.1-0.3-0.1-0.4c0,0,0,0,0-0.1
		c-0.1-0.2-0.1-0.3-0.2-0.5c0,0,0-0.1-0.1-0.1c0-0.1-0.1-0.2-0.1-0.3c0-0.1-0.1-0.1-0.1-0.2c0-0.1-0.1-0.2-0.1-0.3
		c0-0.1-0.1-0.1-0.1-0.2c0-0.1-0.1-0.2-0.1-0.3c0-0.1-0.1-0.1-0.1-0.2c0,0-0.1-0.1-0.1-0.1c0,0,0,0,0,0c-0.1-0.2-0.2-0.4-0.4-0.6
		c-2.6-4.1-7.2-6.8-12.5-6.8H35c-5.2,0-9.8,2.7-12.5,6.8c-0.1,0.2-0.2,0.4-0.4,0.6c0,0,0,0,0,0c0,0-0.1,0.1-0.1,0.1
		c0,0.1-0.1,0.1-0.1,0.2c0,0.1-0.1,0.2-0.1,0.3C21.8,44.5,21.8,44.6,21.8,44.6L21.8,44.6z"/>
	<path class="st0" d="M1.2,59.6h15.1c0.4,0,0.7-0.3,0.7-0.7v-7.6c0-3.1,0.8-6.1,2.2-8.6c0.2-0.4,0-0.9-0.5-1
		c-0.8-0.2-1.6-0.3-2.5-0.3h-3.2C6.1,41.4,0.5,47,0.5,54v4.9C0.5,59.3,0.8,59.6,1.2,59.6L1.2,59.6z"/>
	<path class="st0" d="M61.9,41.4h-3.2c-0.9,0-1.7,0.1-2.5,0.3c-0.5,0.1-0.7,0.6-0.5,1c1.4,2.6,2.2,5.5,2.2,8.6v7.6
		c0,0.4,0.3,0.7,0.7,0.7h15.1c0.4,0,0.7-0.3,0.7-0.7V54C74.5,47,68.9,41.4,61.9,41.4L61.9,41.4z"/>
	<path class="st0" d="M37.5,32.7c4.8,0,8.6-3.9,8.6-8.6c0-4.8-3.9-8.6-8.6-8.6c-4.8,0-8.6,3.9-8.6,8.6
		C28.8,28.8,32.7,32.7,37.5,32.7L37.5,32.7z"/>
	<path class="st0" d="M14.3,37.9c3.6,0,6.5-2.9,6.5-6.5c0-3.6-2.9-6.5-6.5-6.5c-3.6,0-6.5,2.9-6.5,6.5C7.8,35,10.7,37.9,14.3,37.9
		L14.3,37.9z"/>
	<path class="st0" d="M61.2,37.9c3.6,0,6.5-2.9,6.5-6.5c0-3.6-2.9-6.5-6.5-6.5c-3.6,0-6.5,2.9-6.5,6.5C54.8,35,57.7,37.9,61.2,37.9
		L61.2,37.9z"/>
</g>
</svg>
