<?xml version="1.0" encoding="utf-8"?>
<!-- Generator: Adobe Illustrator 24.3.0, SVG Export Plug-In . SVG Version: 6.00 Build 0)  -->
<svg version="1.1" id="Layer_1" xmlns="http://www.w3.org/2000/svg" xmlns:xlink="http://www.w3.org/1999/xlink" x="0px" y="0px"
	 viewBox="0 0 75 75" style="enable-background:new 0 0 75 75;" xml:space="preserve">
<style type="text/css">
	.st0{fill:#7D7D7D;}
</style>
<path class="st0" d="M72.4,31.8l-8.8-2.1c-0.6-2-1.3-3.9-2.3-5.6l4.8-7.9c0.4-0.6,0.3-1.4-0.2-1.8l-5.9-6c-0.5-0.5-1.2-0.6-1.8-0.2
	l-7.7,5c-1.7-1-3.6-1.8-5.5-2.3l-2-9.1c-0.2-0.7-0.7-1.2-1.4-1.2h-8.3c-0.7,0-1.3,0.5-1.4,1.2l-2,9.1c-1.9,0.6-3.8,1.4-5.5,2.3
	l-7.7-5c-0.6-0.4-1.3-0.3-1.8,0.2l-5.9,6c-0.5,0.5-0.6,1.3-0.2,1.8l4.8,7.9c-0.9,1.8-1.7,3.7-2.3,5.6l-8.8,2.1
	c-0.7,0.2-1.1,0.8-1.1,1.4v8.5c0,0.7,0.5,1.3,1.1,1.4l8.8,2.1c0.6,2,1.3,3.9,2.3,5.6l-4.8,7.9c-0.4,0.6-0.3,1.4,0.2,1.8l5.9,6
	c0.5,0.5,1.2,0.6,1.8,0.2l7.7-5c1.7,1,3.6,1.8,5.5,2.3l2,9.1c0.2,0.7,0.7,1.2,1.4,1.2h8.3c0.7,0,1.3-0.5,1.4-1.2l2-9.1
	c1.9-0.6,3.8-1.4,5.5-2.3l7.7,5c0.6,0.4,1.3,0.3,1.8-0.2l5.9-6c0.5-0.5,0.6-1.3,0.2-1.8l-4.8-7.9c0.9-1.8,1.7-3.7,2.3-5.6l8.8-2.1
	c0.7-0.2,1.1-0.8,1.1-1.4v-8.5C73.5,32.5,73.1,31.9,72.4,31.8z M37.5,54.5c-9.1,0-16.6-7.6-16.6-17s7.4-17,16.6-17
	c9.1,0,16.6,7.6,16.6,17S46.6,54.5,37.5,54.5z"/>
</svg>
