<?xml version="1.0" encoding="utf-8"?>
<!-- Generator: Adobe Illustrator 24.3.0, SVG Export Plug-In . SVG Version: 6.00 Build 0)  -->
<svg version="1.1" id="Layer_1" xmlns="http://www.w3.org/2000/svg" xmlns:xlink="http://www.w3.org/1999/xlink" x="0px" y="0px"
	 viewBox="0 0 75 75" style="enable-background:new 0 0 75 75;" xml:space="preserve">
<style type="text/css">
	.st0{fill:#000;stroke:#FFFFFF;stroke-width:4.4338;stroke-linecap:round;stroke-linejoin:round;stroke-miterlimit:10;}
</style>
<g>
	<g>
		<g>
			<path class="st0" d="M66.2,55.6L66.2,55.6c-0.5,2.2-2.4,3.9-4.7,3.9H13.5c-2.3,0-4.3-1.6-4.7-3.9l0,0c-0.3-1.4,0.1-2.9,1.1-4.1
				l5.7-6.6c1.3-1.5,2-3.5,2-5.5V23c0-11,8.9-20,20-20l0,0c11,0,20,8.9,20,20v16.4c0,2,0.7,3.9,2,5.5l5.7,6.6
				C66.1,52.6,66.5,54.1,66.2,55.6z"/>
			<path class="st0" d="M45.8,67c0,2.7-3.7,5-8.3,5s-8.3-2.2-8.3-5"/>
		</g>
	</g>
</g>
</svg>
