<?xml version="1.0" encoding="utf-8"?>
<!-- Generator: Adobe Illustrator 24.3.0, SVG Export Plug-In . SVG Version: 6.00 Build 0)  -->
<svg version="1.1" id="Layer_1" xmlns="http://www.w3.org/2000/svg" xmlns:xlink="http://www.w3.org/1999/xlink" x="0px" y="0px"
	 viewBox="0 0 75 75" style="enable-background:new 0 0 75 75;" xml:space="preserve">
<style type="text/css">
	.st0{fill:none;stroke:#FFB600;stroke-width:5.3519;stroke-miterlimit:10;}
	.st1{fill:#FFB600;}
</style>
<g>
	<path class="st0" d="M63.5,71H12.1c-3,0-5.5-2.4-5.5-5.5V14.4c0-3,2.4-5.5,5.5-5.5h51.4c3,0,5.5,2.4,5.5,5.5v51.1
		C69,68.6,66.5,71,63.5,71z"/>
	<path class="st1" d="M22.7,16.9L22.7,16.9c-2.6,0-4.6-2-4.6-4.5V5.8c0-2.5,2-4.5,4.5-4.5h0.1c2.5,0,4.5,2,4.5,4.5v6.6
		C27.2,14.9,25.2,16.9,22.7,16.9z"/>
	<path class="st1" d="M51.7,16.9L51.7,16.9c2.6,0,4.6-2,4.6-4.5V5.8c0-2.5-2-4.5-4.5-4.5h-0.1c-2.5,0-4.5,2-4.5,4.5v6.6
		C47.2,14.9,49.2,16.9,51.7,16.9z"/>
	<line class="st0" x1="6" y1="25" x2="68.4" y2="25"/>
	<path class="st1" d="M19.4,35.1"/>
	<circle class="st1" cx="31.5" cy="36.8" r="3.4"/>
	<circle class="st1" cx="44.1" cy="36.8" r="3.4"/>
	<circle class="st1" cx="56.6" cy="36.8" r="3.4"/>
	<path class="st1" d="M19.4,46.1"/>
	<circle class="st1" cx="19" cy="47.9" r="3.4"/>
	<circle class="st1" cx="31.5" cy="47.9" r="3.4"/>
	<circle class="st1" cx="44.1" cy="47.9" r="3.4"/>
	<circle class="st1" cx="56.6" cy="47.9" r="3.4"/>
	<path class="st1" d="M19.4,57.1"/>
	<circle class="st1" cx="19" cy="58.9" r="3.4"/>
	<circle class="st1" cx="31.5" cy="58.9" r="3.4"/>
	<circle class="st1" cx="44.1" cy="58.9" r="3.4"/>
	<circle class="st1" cx="56.6" cy="58.9" r="3.4"/>
</g>
</svg>
