<?xml version="1.0" encoding="utf-8"?>
<!-- Generator: Adobe Illustrator 24.3.0, SVG Export Plug-In . SVG Version: 6.00 Build 0)  -->
<svg version="1.1" id="Layer_1" xmlns="http://www.w3.org/2000/svg" xmlns:xlink="http://www.w3.org/1999/xlink" x="0px" y="0px"
	 viewBox="0 0 75 75" style="enable-background:new 0 0 75 75;" xml:space="preserve">
<style type="text/css">
	.st0{fill:#FFB600;}
</style>
<g>
	<g>
		<path class="st0" d="M69.9,21.3H16.7c-2.5,0-4.6,2.1-4.6,4.6v32.4c0,2.5,2.1,4.6,4.6,4.6h53.2c2.5,0,4.6-2.1,4.6-4.6V25.9
			C74.5,23.4,72.4,21.3,69.9,21.3z M35.5,29.4c2.1,0,3.9,1.7,3.9,3.9c0,2.1-1.7,3.9-3.9,3.9s-3.9-1.7-3.9-3.9
			C31.6,31.1,33.3,29.4,35.5,29.4z M57.6,54.8H29c-1.5,0-2.2-1.1-1.4-2.4l1.2-2c0.8-1.3,4-6.9,4-6.9c0.4-0.7,0.9-1,1.4-1
			c0.5,0,1,0.3,1.4,1c0,0,2.6,4.5,3.3,5.8l7.8-13.5c0.4-0.7,0.9-1,1.4-1c0.5,0,1,0.3,1.4,1L59,52.4C59.8,53.8,59.1,54.8,57.6,54.8z"
			/>
	</g>
	<g>
		<path class="st0" d="M16.7,16.7h46.2c0-2.5-2.1-4.6-4.6-4.6H5.1c-2.5,0-4.6,2.1-4.6,4.6v32.4c0,2.5,2.1,4.6,4.6,4.6h2.3V25.9
			C7.4,20.8,11.6,16.7,16.7,16.7z"/>
	</g>
</g>
</svg>
