<?xml version="1.0" encoding="utf-8"?>
<!-- Generator: Adobe Illustrator 24.3.0, SVG Export Plug-In . SVG Version: 6.00 Build 0)  -->
<svg version="1.1" id="Layer_1" xmlns="http://www.w3.org/2000/svg" xmlns:xlink="http://www.w3.org/1999/xlink" x="0px" y="0px"
	 viewBox="0 0 75 75" style="enable-background:new 0 0 75 75;" xml:space="preserve">
<style type="text/css">
	.st0{fill:#3D454A;}
</style>
<g>
	<g>
		<g>
			<path class="st0" d="M1.7,25.1h15.3v49.3H1.7V25.1z M9.4,0.6c4.9,0,8.9,4,8.9,8.9c0,4.9-4,8.9-8.9,8.9c-4.9,0-8.9-4-8.9-8.9
				C0.5,4.6,4.5,0.6,9.4,0.6"/>
			<path class="st0" d="M26.7,25.1h14.7v6.8h0.2c2-3.9,7-8,14.5-8c15.5,0,18.4,10.2,18.4,23.5v27.1H59.2v-24c0-5.7-0.1-13.1-8-13.1
				c-8,0-9.2,6.2-9.2,12.7v24.4H26.7V25.1z"/>
		</g>
	</g>
</g>
</svg>
