<?xml version="1.0" encoding="utf-8"?>
<!-- Generator: Adobe Illustrator 24.3.0, SVG Export Plug-In . SVG Version: 6.00 Build 0)  -->
<svg version="1.1" id="Layer_1" xmlns="http://www.w3.org/2000/svg" xmlns:xlink="http://www.w3.org/1999/xlink" x="0px" y="0px"
	 viewBox="0 0 75 75" style="enable-background:new 0 0 75 75;" xml:space="preserve">
<style type="text/css">
	.st0{fill:#3D454A;}
</style>
<g>
	<g>
		<g>
			<g>
				<path class="st0" d="M37.5,74.5L16.1,41.1c-0.3-0.5-0.6-1-0.9-1.5c-0.3-0.5-0.6-1-0.8-1.4c-1.9-3.7-2.8-7.6-2.8-11.8
					c0-3.5,0.7-6.9,2-10.1c1.3-3.1,3.2-5.9,5.6-8.2c2.4-2.4,5.2-4.3,8.2-5.6c3.2-1.4,6.6-2,10.1-2c3.5,0,6.9,0.7,10.1,2
					c3.1,1.3,5.9,3.2,8.2,5.6c2.4,2.4,4.3,5.2,5.6,8.2c1.4,3.2,2,6.6,2,10.1c0,4.2-1,8.1-2.8,11.8l0,0l-1.7,2.8L37.5,74.5z
					 M37.5,3.4c-12.7,0-23.1,10.3-23.1,23.1c0,3.7,0.8,7.2,2.5,10.5c0.2,0.4,0.4,0.8,0.7,1.3c0.3,0.4,0.5,0.9,0.8,1.3l0,0l19,29.6
					l19-29.6l1.6-2.7c1.7-3.3,2.5-6.8,2.5-10.4C60.6,13.7,50.2,3.4,37.5,3.4z M37.5,40.4c-3.7,0-7.1-1.4-9.7-4c-2.6-2.6-4-6-4-9.7
					c0-3.7,1.4-7.1,4-9.7c2.6-2.6,6-4,9.7-4c3.7,0,7.1,1.4,9.7,4c2.6,2.6,4,6,4,9.7c0,3.7-1.4,7.1-4,9.7
					C44.6,38.9,41.2,40.4,37.5,40.4z M37.5,15.8c-6,0-10.8,4.9-10.8,10.8s4.9,10.8,10.8,10.8c6,0,10.8-4.9,10.8-10.8
					S43.5,15.8,37.5,15.8z"/>
			</g>
		</g>
	</g>
</g>
</svg>
