<?xml version="1.0" encoding="utf-8"?>
<!-- Generator: Adobe Illustrator 24.3.0, SVG Export Plug-In . SVG Version: 6.00 Build 0)  -->
<svg version="1.1" id="Layer_1" xmlns="http://www.w3.org/2000/svg" xmlns:xlink="http://www.w3.org/1999/xlink" x="0px" y="0px"
	 viewBox="0 0 75 75" style="enable-background:new 0 0 75 75;" xml:space="preserve">
<style type="text/css">
	.st0{fill:#3D454A;}
</style>
<g>
	<path class="st0" d="M53.6,74.3c-2.1,0-3.9-0.2-5.1-0.5c-2.7-0.6-10.1-3.9-18.3-9.5C22.9,59.5,13,51.3,6.6,40.2
		C3.8,35.4,1.9,30.6,1.1,26c-0.7-3.9-0.7-7.7,0-11.3c0.6-2.8,1.6-5.5,3-7.8c1.1-1.8,2.4-3.3,3.5-4.1c2.7-1.9,6.9-2.1,9.1-2.1
		c1.2,0,2.2,0.7,2.8,1.7l8.9,15.2c0.8,1.4,0.5,3.1-0.6,4.1l-7.5,7.1c-0.9,0.9-1.2,2.2-0.8,3.4c1.8,5.5,5.7,10.7,11.5,15.2
		c4.4,3.5,8.9,5.8,12.3,7.4c0.6,0.3,1.3,0.1,1.7-0.3c1.9-2,3.4-3.6,4.7-4.8c0.9-0.9,1.6-1.5,2.2-2c0.8-0.7,1.4-1,1.9-1.1
		c0.7-0.2,1.6-0.1,4.4,0.8c2.2,0.7,4.7,1.7,6.4,2.5c2.2,0.9,4.5,1.9,6.2,2.7c0.9,0.4,1.6,0.8,2.1,1c0.8,0.4,1.2,0.7,1.5,1.2
		c0.6,1.2,0.3,3.6,0.1,4.6c-0.3,1.6-1.1,4.3-2.9,7.3c-2,3.5-5.9,5.9-11.2,7C57.9,74.1,55.6,74.3,53.6,74.3z M16.1,3.7
		c-1.7,0-4.9,0.2-6.8,1.5C8.6,5.7,7.6,6.8,6.6,8.5c-0.8,1.4-2,3.7-2.6,6.9c-0.6,3.2-0.6,6.6,0,10.1c0.8,4.3,2.5,8.7,5.2,13.3
		c6.1,10.6,15.7,18.4,22.6,23.2c4.5,3.1,8.4,5.2,10.9,6.4c3.3,1.6,5.5,2.4,6.4,2.6c2.2,0.5,6.3,0.7,10.4-0.2
		c3.1-0.7,7.2-2.2,9.2-5.6c1.5-2.6,2.1-4.7,2.4-6.1c0.3-1.3,0.3-2.2,0.3-2.7c-1-0.6-4.1-2-8.3-3.7c-5.7-2.3-8.2-3.1-8.9-3.2
		c0,0,0,0,0,0c-0.4,0.3-1.9,1.5-7.2,7.1c-1.3,1.4-3.4,1.8-5.2,1c-3.5-1.7-8.2-4.1-12.8-7.8c-6.2-4.9-10.4-10.5-12.5-16.6
		c-0.8-2.3-0.1-4.8,1.6-6.5l7.5-7.1c0.1-0.1,0.1-0.3,0.1-0.4L16.9,3.9c-0.1-0.1-0.2-0.2-0.3-0.2C16.4,3.7,16.3,3.7,16.1,3.7z
		 M71.4,56C71.4,56,71.4,56,71.4,56C71.4,56,71.4,56,71.4,56z M53.9,49.5L53.9,49.5C53.9,49.5,53.9,49.5,53.9,49.5L53.9,49.5z
		 M53.4,46.5C53.4,46.5,53.4,46.5,53.4,46.5C53.4,46.5,53.4,46.5,53.4,46.5z M53.8,46.4C53.8,46.4,53.8,46.4,53.8,46.4
		C53.8,46.4,53.8,46.4,53.8,46.4L53.8,46.4z"/>
</g>
</svg>
