<?xml version="1.0" encoding="utf-8"?>
<!-- Generator: Adobe Illustrator 24.3.0, SVG Export Plug-In . SVG Version: 6.00 Build 0)  -->
<svg version="1.1" id="Layer_1" xmlns="http://www.w3.org/2000/svg" xmlns:xlink="http://www.w3.org/1999/xlink" x="0px" y="0px"
	 viewBox="0 0 75 75" style="enable-background:new 0 0 75 75;" xml:space="preserve">
<style type="text/css">
	.st0{fill:#3D454A;}
</style>
<path class="st0" d="M71.5,71.8c-1.3-13.9-11-25.4-23.9-29.4c7.2-3.7,12.1-11.1,12.1-19.7c0-12.2-9.9-22.2-22.2-22.2
	s-22.2,9.9-22.2,22.2c0,8.6,4.9,16.1,12.1,19.7c-12.9,4-22.6,15.5-23.9,29.4c-0.1,1.5,1,2.7,2.5,2.7h0c1.3,0,2.4-1,2.5-2.3
	c0.3-2.9,1-5.8,2.2-8.5c0.7-1.7,1.6-3.4,2.7-4.9c1-1.5,2.2-3,3.6-4.3c1.3-1.3,2.8-2.5,4.3-3.6c1.6-1.1,3.2-2,4.9-2.7
	c3.6-1.5,7.4-2.3,11.3-2.3c3.9,0,7.7,0.8,11.3,2.3c1.7,0.7,3.4,1.6,4.9,2.7c1.5,1,3,2.2,4.3,3.6c1.3,1.3,2.5,2.8,3.6,4.3
	c1.1,1.6,2,3.2,2.7,4.9c1.2,2.7,1.9,5.6,2.2,8.5c0.1,1.3,1.2,2.3,2.5,2.3C70.5,74.5,71.6,73.2,71.5,71.8z M37.5,39.8
	c-2.3,0-4.6-0.5-6.7-1.3c-2-0.9-3.9-2.1-5.4-3.7c-1.6-1.6-2.8-3.4-3.7-5.4c-0.9-2.1-1.3-4.4-1.3-6.7s0.5-4.6,1.3-6.7
	c0.9-2,2.1-3.9,3.7-5.4C27,9,28.8,7.7,30.8,6.9c2.1-0.9,4.4-1.3,6.7-1.3c2.3,0,4.6,0.5,6.7,1.3c2,0.9,3.9,2.1,5.4,3.7
	c1.6,1.6,2.8,3.4,3.7,5.4c0.9,2.1,1.3,4.4,1.3,6.7s-0.5,4.6-1.3,6.7c-0.9,2-2.1,3.9-3.7,5.4c-1.6,1.6-3.4,2.8-5.4,3.7
	C42.1,39.3,39.8,39.8,37.5,39.8z"/>
</svg>
