<?xml version="1.0" encoding="utf-8"?>
<!-- Generator: Adobe Illustrator 24.3.0, SVG Export Plug-In . SVG Version: 6.00 Build 0)  -->
<svg version="1.1" id="Layer_1" xmlns="http://www.w3.org/2000/svg" xmlns:xlink="http://www.w3.org/1999/xlink" x="0px" y="0px"
	 viewBox="0 0 75 75" style="enable-background:new 0 0 75 75;" xml:space="preserve">
<style type="text/css">
	.st0{fill-rule:evenodd;clip-rule:evenodd;fill:#3D454A;}
</style>
<path class="st0" d="M7.9,12.5h59.1l0,0h0.1l0,0h0.1h0.2l-0.1,0.1l-30,28l-0.1,0.1l-0.1-0.1L6.9,12.8l-0.1-0.1l0.1,0
	c0.2,0,0.4-0.1,0.5-0.1C7.6,12.5,7.8,12.5,7.9,12.5L7.9,12.5z M3.8,15.8c0.1-0.4,0.2-0.7,0.4-1l0.1-0.1l0.1,0.1l24.5,22.7l0.1,0.1
	l-0.1,0L4,59.6l-0.1,0.1l0-0.1c-0.1-0.2-0.1-0.4-0.2-0.7c0-0.2-0.1-0.5-0.1-0.7l0,0V16.8l0,0C3.7,16.5,3.7,16.1,3.8,15.8L3.8,15.8z
	 M7,62.4c-0.3-0.1-0.6-0.2-0.9-0.3L6,62l0.1-0.1l24.8-22l0,0c0,0,0.1-0.1,0.1-0.1l0,0c0,0,0.1-0.1,0.1-0.1l0.1-0.1l0.1,0.1l4.9,4.3
	l0,0c0.1,0.1,0.3,0.2,0.5,0.3l0,0c0.2,0.1,0.4,0.1,0.6,0.1l0,0h0h0l0,0c0.2,0,0.4,0,0.6-0.1c0.2-0.1,0.3-0.2,0.5-0.3l0,0l4.9-4.3
	l0.1-0.1l0.1,0.1c0,0,0.1,0.1,0.1,0.1c0,0.1,0.1,0.1,0.1,0.1l0,0l25.1,22.1l0.1,0.1l-0.1,0.1c-0.2,0.1-0.5,0.2-0.8,0.2
	c-0.2,0.1-0.5,0.1-0.8,0.1l0,0H7.9l0,0C7.6,62.5,7.3,62.4,7,62.4L7,62.4z M71.3,59c-0.1,0.3-0.1,0.5-0.2,0.8l0,0.1l-0.1-0.1
	L45.7,37.6l-0.1,0l0.1-0.1l24.7-23.3l0.1,0l0,0.1c0.3,0.4,0.5,0.8,0.7,1.2c0.2,0.4,0.2,0.9,0.2,1.4l0,0v41.4l0,0
	C71.3,58.5,71.3,58.8,71.3,59L71.3,59z M67.1,9.4H7.9c-1,0-2,0.2-2.8,0.6c-0.9,0.4-1.7,0.9-2.4,1.6C2,12.2,1.5,13,1.1,14
	c-0.4,0.9-0.6,1.8-0.6,2.8l0,0v41.4l0,0c0,1,0.2,2,0.6,2.8C1.5,62,2,62.8,2.7,63.5c0.7,0.7,1.5,1.2,2.4,1.6c0.9,0.4,1.8,0.6,2.8,0.6
	h59.1c1,0,2-0.2,2.8-0.6c0.9-0.4,1.7-0.9,2.4-1.6l0,0c0.7-0.7,1.2-1.5,1.6-2.4c0.4-0.9,0.6-1.8,0.6-2.8l0,0V16.8l0,0
	c0-1-0.2-2-0.6-2.8c-0.4-0.9-0.9-1.7-1.6-2.4c-0.7-0.7-1.5-1.2-2.4-1.6C69,9.6,68.1,9.4,67.1,9.4L67.1,9.4z"/>
</svg>
