<?xml version="1.0" encoding="utf-8"?>
<!-- Generator: Adobe Illustrator 24.3.0, SVG Export Plug-In . SVG Version: 6.00 Build 0)  -->
<svg version="1.1" id="Layer_1" xmlns="http://www.w3.org/2000/svg" xmlns:xlink="http://www.w3.org/1999/xlink" x="0px" y="0px"
	 viewBox="0 0 75 75" style="enable-background:new 0 0 75 75;" xml:space="preserve">
<style type="text/css">
	.st0{fill:#3D454A;}
</style>
<g>
	<path class="st0" d="M8.1,74.5c-0.7,0-1.4-0.2-1.9-0.7c-0.8-0.6-1.2-1.6-1-2.6L7.3,56c0.1-0.5,0.3-1.1,0.7-1.5l43-51.1
		c3-3.5,8.2-3.9,11.7-0.9l4.1,3.4c1.7,1.4,2.7,3.4,2.9,5.6c0.2,2.2-0.5,4.4-1.9,6.1l-5.2,6.2c-1,1.2-2.9,1.4-4.1,0.4
		c-1.2-1-1.4-2.9-0.4-4.1l5.2-6.2c0.4-0.5,0.6-1.1,0.5-1.8c-0.1-0.7-0.4-1.3-0.9-1.7L58.9,7c-1.1-0.9-2.6-0.8-3.5,0.2L13,57.6
		l-1.3,9.7l9.3-3l37.5-44.6c1-1.2,2.9-1.4,4.1-0.4c1.2,1,1.4,2.9,0.4,4.1l-38,45.2c-0.4,0.4-0.8,0.7-1.3,0.9L9,74.4
		C8.7,74.5,8.4,74.5,8.1,74.5z"/>
	<path class="st0" d="M60.4,24.9c-0.7,0-1.3-0.2-1.9-0.7L46.1,13.7c-1.2-1-1.4-2.9-0.3-4.1c1.1-1.2,2.9-1.4,4.1-0.3l12.4,10.5
		c1.2,1,1.4,2.9,0.3,4.1C62.1,24.6,61.3,24.9,60.4,24.9z"/>
	<path class="st0" d="M23.2,69.3c-0.7,0-1.3-0.2-1.9-0.7L8.8,58.1c-1.2-1-1.4-2.9-0.3-4.1c1.1-1.2,2.9-1.4,4.1-0.3l12.4,10.5
		c1.2,1,1.4,2.9,0.3,4.1C24.8,69,24,69.3,23.2,69.3z"/>
</g>
</svg>
