<?xml version="1.0" encoding="utf-8"?>
<!-- Generator: Adobe Illustrator 24.3.0, SVG Export Plug-In . SVG Version: 6.00 Build 0)  -->
<svg version="1.1" id="Layer_1" xmlns="http://www.w3.org/2000/svg" xmlns:xlink="http://www.w3.org/1999/xlink" x="0px" y="0px"
	 viewBox="0 0 75 75" style="enable-background:new 0 0 75 75;" xml:space="preserve">
<style type="text/css">
	.st0{fill:#3D454A;}
</style>
<path class="st0" d="M18.8,14.7h-5.6c-4.4,0-7.9,3.5-7.9,7.9V50h0.3c-2.8,0-5.1,2.3-5.1,5.1l0,0c0,2.8,2.3,5.1,5.1,5.1h63.7
	c2.8,0,5.1-2.3,5.1-5.1l0,0c0-2.8-2.3-5.1-5.1-5.1h0.3V22.6c0-4.4-3.5-7.9-7.9-7.9h-5.6 M8.5,22.6c0-2.7,2.2-4.8,4.8-4.8h48.4
	c2.7,0,4.8,2.2,4.8,4.8v5.1H8.5V22.6z M8.5,30.8h58.1v8c-1.3-1.5-2.9-2.9-5.1-2.9c-2.6,0-4.1,2.1-5.2,3.8c-1.1,1.5-1.8,2.4-2.7,2.4
	c-0.7,0-1.4-0.7-2.5-1.9c-1.3-1.5-3-3.3-5.7-3.3c0,0-0.1,0-0.1,0c-2.5,0-4.2,1.9-5.6,3.4c-1,1-1.9,2.1-2.7,2.1c0,0,0,0,0,0
	c-0.9,0-2-1.2-3-2.3c-1.3-1.5-2.8-3.2-5-3.2c-2.9-0.1-4.3,1.8-5.4,3.1c-0.9,1.2-1.5,1.8-2.5,2c-0.6,0.1-1.4-0.9-2.3-1.9
	c-1.2-1.5-2.7-3.3-5.1-3.4c-1.9-0.1-3.6,1-5.2,2.4V30.8z M8.5,43.3c0.1-0.1,0.3-0.3,0.4-0.4c1.7-1.6,3.4-3.2,4.8-3.1
	c0.9,0,1.9,1.2,2.8,2.2c1.2,1.5,2.8,3.3,5.1,3c2.4-0.3,3.6-1.9,4.5-3.2c1-1.3,1.5-1.9,2.8-1.9c0,0,0.1,0,0.1,0
	c0.8,0,1.8,1.1,2.7,2.2c1.4,1.6,2.9,3.3,5.2,3.3c2.1,0,3.7-1.6,5-3.1c1.2-1.2,2.3-2.4,3.4-2.4c1.3,0,2.2,0.9,3.5,2.3
	c1.2,1.3,2.5,2.8,4.7,2.9c2.6,0.1,4.1-2,5.3-3.7c1.1-1.5,1.8-2.4,2.7-2.4c1.3,0,2.4,1.3,3.7,2.9c0.4,0.5,0.9,1.1,1.4,1.6V50H8.5
	V43.3z M69.4,57.2H5.6c-1.1,0-2-0.9-2-2c0-1.1,0.9-2,2-2h63.7c1.1,0,2,0.9,2,2C71.4,56.3,70.5,57.2,69.4,57.2z"/>
</svg>
