<?xml version="1.0" encoding="utf-8"?>
<!-- Generator: Adobe Illustrator 24.3.0, SVG Export Plug-In . SVG Version: 6.00 Build 0)  -->
<svg version="1.1" id="Layer_1" xmlns="http://www.w3.org/2000/svg" xmlns:xlink="http://www.w3.org/1999/xlink" x="0px" y="0px"
	 viewBox="0 0 75 75" style="enable-background:new 0 0 75 75;" xml:space="preserve">
<style type="text/css">
	.st0{fill:#FFFFFF;}
</style>
<g>
	<path class="st0" d="M45.1,43.4c-0.9,0-1.7,0.8-1.7,1.7c0,0.9,0.8,1.7,1.7,1.7c0.9,0,1.7-0.8,1.7-1.7C46.8,44.1,46,43.4,45.1,43.4z
		"/>
	<path class="st0" d="M29.9,31.6c0.9,0,1.7-0.8,1.7-1.7c0-0.9-0.8-1.7-1.7-1.7c-0.9,0-1.7,0.8-1.7,1.7C28.2,30.9,29,31.6,29.9,31.6z
		"/>
	<path class="st0" d="M72.2,43.3c-3.1,0-5.7-2.6-5.7-5.8c0-3.1,2.6-5.7,5.7-5.8c0.6,0,1.2-0.3,1.6-0.7c0.4-0.5,0.7-1.1,0.6-1.7
		c-0.1-4.1-0.4-8.3-0.8-12.5l-0.1-0.9c-0.3-3.7-3.8-6.5-8.2-6.7l-1.1-0.1c-17.8-0.9-35.9-0.9-53.7,0L9.5,9.2c-4.4,0.2-7.9,3-8.2,6.7
		l-0.1,0.9C0.9,21,0.6,25.2,0.5,29.3c0,0.6,0.2,1.2,0.6,1.7c0.4,0.5,1,0.7,1.6,0.7c3.1,0,5.7,2.6,5.7,5.8c0,3.1-2.6,5.7-5.7,5.8
		c-0.6,0-1.2,0.3-1.6,0.7c-0.4,0.5-0.7,1.1-0.6,1.7c0.1,4.1,0.4,8.3,0.8,12.5l0.1,0.9c0.3,3.7,3.8,6.5,8.2,6.7l1.1,0.1
		c8.9,0.5,17.9,0.7,26.8,0.7c9,0,17.9-0.2,26.8-0.7l1.1-0.1c4.4-0.2,7.9-3,8.2-6.7l0.1-0.9c0.4-4.2,0.6-8.4,0.8-12.5
		c0-0.6-0.2-1.2-0.6-1.7C73.4,43.6,72.8,43.3,72.2,43.3z M29.9,23.6c3.5,0,6.3,2.8,6.3,6.3s-2.8,6.3-6.3,6.3s-6.3-2.8-6.3-6.3
		S26.4,23.6,29.9,23.6z M28.7,49.6c-0.5,0.5-1,0.7-1.6,0.7s-1.2-0.2-1.6-0.7c-0.9-0.9-0.9-2.4,0-3.3l20.9-20.9
		c0.9-0.9,2.4-0.9,3.3,0c0.9,0.9,0.9,2.4,0,3.3L28.7,49.6z M45.1,51.4c-3.5,0-6.3-2.8-6.3-6.3s2.8-6.3,6.3-6.3s6.3,2.8,6.3,6.3
		S48.6,51.4,45.1,51.4z"/>
</g>
</svg>
