<?xml version="1.0" encoding="utf-8"?>
<!-- Generator: Adobe Illustrator 24.3.0, SVG Export Plug-In . SVG Version: 6.00 Build 0)  -->
<svg version="1.1" id="Layer_1" xmlns="http://www.w3.org/2000/svg" xmlns:xlink="http://www.w3.org/1999/xlink" x="0px" y="0px"
	 viewBox="0 0 75 75" style="enable-background:new 0 0 75 75;" xml:space="preserve">
<style type="text/css">
	.st0{fill:#FFFFFF;}
</style>
<g>
	<g>
		<path class="st0" d="M73.2,33l-12.5-9.7V12.1c0-0.6-0.5-1.2-1.2-1.2h-6.9c-0.6,0-1.2,0.5-1.2,1.2v4.1L39.6,7c-1.3-1-3-1-4.3,0
			L1.8,33c-1.5,1.2-1.8,3.4-0.6,4.9c1.2,1.5,3.4,1.8,4.9,0.6l29.7-23c0,0,0.8-0.7,1.7-0.7c0.9,0,1.7,0.7,1.7,0.7l29.7,23
			c0.6,0.5,1.4,0.7,2.1,0.7c1,0,2.1-0.5,2.7-1.3C74.9,36.4,74.7,34.2,73.2,33z"/>
		<path class="st0" d="M64.3,39.2L38.4,19.1c-0.5-0.4-1.3-0.4-1.8,0L10.7,39.2c-0.5,0.4-0.9,1.2-0.9,1.9v26.5c0,0.6,0.5,1.2,1.2,1.2
			h18.5c0.6,0,1.2-0.5,1.2-1.2V49.1c0-0.6,0.5-1.2,1.2-1.2h11.6c0.6,0,1.2,0.5,1.2,1.2v18.5c0,0.6,0.5,1.2,1.2,1.2h18.5
			c0.6,0,1.2-0.5,1.2-1.2V41.1C65.2,40.5,64.8,39.6,64.3,39.2z"/>
	</g>
</g>
</svg>
