<?xml version="1.0" encoding="utf-8"?>
<!-- Generator: Adobe Illustrator 24.3.0, SVG Export Plug-In . SVG Version: 6.00 Build 0)  -->
<svg version="1.1" id="Layer_1" xmlns="http://www.w3.org/2000/svg" xmlns:xlink="http://www.w3.org/1999/xlink" x="0px" y="0px"
	 viewBox="0 0 75 75" style="enable-background:new 0 0 75 75;" xml:space="preserve">
<style type="text/css">
	.st0{fill:#FFFFFF;}
</style>
<g>
	<g>
		<path class="st0" d="M63.6,55.1h-51c-2.7,0-4.8-2.2-4.8-4.8V18.5c0-2.7,2.2-4.8,4.8-4.8h51c2.7,0,4.8,2.2,4.8,4.8v31.7
			C68.4,52.9,66.3,55.1,63.6,55.1z"/>
		<path class="st0" d="M13.2,51.2c-0.8,0-1.5-0.7-1.5-1.5V19.1c0-0.8,0.7-1.5,1.5-1.5H63c0.8,0,1.5,0.7,1.5,1.5v30.6
			c0,0.8-0.7,1.5-1.5,1.5H13.2z"/>
		<path class="st0" d="M46.1,56.4c-0.2,1-1.1,1.8-2.2,1.8H32.3c-1.1,0-2-0.8-2.2-1.8H1.9c-0.8,0-1.4,0.6-1.4,1.4v0.1
			c0,2.1,1.7,3.4,3.9,3.4h33.1h33.1c2.1,0,3.9-1.3,3.9-3.4v-0.1c0-0.8-0.6-1.4-1.4-1.4H46.1z"/>
	</g>
	<circle class="st0" cx="38.1" cy="15.7" r="0.7"/>
</g>
</svg>
