<?xml version="1.0" encoding="utf-8"?>
<!-- Generator: Adobe Illustrator 25.4.1, SVG Export Plug-In . SVG Version: 6.00 Build 0)  -->
<svg version="1.1" id="Layer_1" xmlns="http://www.w3.org/2000/svg" xmlns:xlink="http://www.w3.org/1999/xlink" x="0px" y="0px"
	 viewBox="0 0 75 75" style="enable-background:new 0 0 75 75;" xml:space="preserve">
<style type="text/css">
	.st0{fill:#FFFFFF;}
</style>
<path class="st0" d="M60.1,31.5c-1.4,0-2.8,0.2-4.1,0.6l-5.3-12.7l4.6-1.8c0.8-0.3,1.1-1.2,0.8-1.9c-0.3-0.8-1.2-1.1-1.9-0.8l-6,2.4
	c-0.2,0.1-0.4,0.2-0.5,0.3c-0.4,0.4-0.6,1.1-0.3,1.6l2.3,5.5H28.1l-1.6-3.9h3.8c0.8,0,1.5-0.7,1.5-1.5s-0.7-1.5-1.5-1.5h-9.1
	c-0.8,0-1.5,0.7-1.5,1.5s0.7,1.5,1.5,1.5h2.1l2.2,5.4L21.3,33c-1.9-0.9-4-1.4-6.3-1.4C7,31.6,0.6,38.1,0.6,46
	c0,8,6.5,14.4,14.4,14.4c7.4,0,13.6-5.6,14.4-12.9c3.4,0,6,0,6,0c0.4,0,0.8-0.2,1.1-0.5l15.2-17.3l1.5,3.6
	c-4.5,2.4-7.5,7.2-7.5,12.7c0,8,6.5,14.4,14.4,14.4c8,0,14.4-6.5,14.4-14.4C74.5,37.9,68,31.5,60.1,31.5z M23,54
	c-2.1,2.1-4.9,3.4-8.1,3.4s-6-1.3-8.1-3.4c-2.1-2.1-3.4-4.9-3.4-8.1c0-3.2,1.3-6,3.4-8.1s4.9-3.4,8.1-3.4c1.7,0,3.2,0.4,4.7,1
	l-6.1,9.7c-0.2,0.2-0.2,0.5-0.2,0.8l0,0l0,0l0,0c0,0.8,0.7,1.4,1.5,1.4c0,0,6,0,11.5,0C25.9,50,24.8,52.3,23,54z M23,37.8
	c1.8,1.8,2.9,4.1,3.3,6.7h-8.8l4.7-7.5C22.5,37.3,22.8,37.5,23,37.8z M29.3,44.5c-0.4-4.1-2.5-7.7-5.6-10l3.1-5l6.2,15H29.3z
	 M35.7,43.2l-6.4-15.6h20.1L35.7,43.2z M68.2,54c-2.1,2.1-4.9,3.4-8.1,3.4c-3.2,0-6-1.3-8.1-3.4c-2.1-2.1-3.4-4.9-3.4-8.1
	c0-3.2,1.3-6,3.4-8.1c0.7-0.7,1.5-1.3,2.4-1.8l4.4,10.6c0.2,0.6,0.8,0.9,1.4,0.9c0.2,0,0.4,0,0.6-0.1c0.8-0.3,1.1-1.2,0.8-2
	l-4.4-10.6c1-0.3,2-0.4,3-0.4c3.2,0,6,1.3,8.1,3.4c2.1,2.1,3.4,4.9,3.4,8.1C71.5,49.1,70.2,51.9,68.2,54z"/>
</svg>
