<?xml version="1.0" encoding="utf-8"?>
<!-- Generator: Adobe Illustrator 24.3.0, SVG Export Plug-In . SVG Version: 6.00 Build 0)  -->
<svg version="1.1" id="Layer_1" xmlns="http://www.w3.org/2000/svg" xmlns:xlink="http://www.w3.org/1999/xlink" x="0px" y="0px"
	 viewBox="0 0 75 75" style="enable-background:new 0 0 75 75;" xml:space="preserve">
<style type="text/css">
	.st0{fill:#FFFFFF;}
</style>
<path class="st0" d="M38.9,3.2l10.2,20.7c0.2,0.4,0.6,0.7,1.1,0.8L73.3,28c1.2,0.2,1.6,1.6,0.8,2.4L57.4,46.7
	c-0.3,0.3-0.5,0.8-0.4,1.3l3.9,23c0.2,1.2-1,2.1-2.1,1.5L38.2,61.6c-0.4-0.2-0.9-0.2-1.3,0L16.2,72.5c-1,0.6-2.3-0.3-2.1-1.5l3.9-23
	c0.1-0.5-0.1-0.9-0.4-1.3L0.9,30.5c-0.8-0.8-0.4-2.3,0.8-2.4l23.1-3.4c0.5-0.1,0.9-0.4,1.1-0.8L36.1,3.2C36.7,2,38.3,2,38.9,3.2z"/>
</svg>
