<?xml version="1.0" encoding="utf-8"?>
<!-- Generator: Adobe Illustrator 24.3.0, SVG Export Plug-In . SVG Version: 6.00 Build 0)  -->
<svg version="1.1" id="Layer_1" xmlns="http://www.w3.org/2000/svg" xmlns:xlink="http://www.w3.org/1999/xlink" x="0px" y="0px"
	 viewBox="0 0 75 75" style="enable-background:new 0 0 75 75;" xml:space="preserve">
<style type="text/css">
	.st0{fill:#FFFFFF;}
</style>
<path id="XMLID_33_" class="st0" d="M53.8,11.4C45.6-0.2,29.5-3,17.9,5.2S3.6,29.4,11.8,41c7.5,10.6,21.4,13.8,32.6,8.1l16.8,23.8
	c1.2,1.7,3.5,2.1,5.2,0.9l0,0c1.7-1.2,2.1-3.5,0.9-5.2L50.5,44.8C59.6,36.2,61.2,22,53.8,11.4z M50.3,37.1c-1.5,2.3-3.3,4.3-5.6,5.9
	c-2.3,1.6-4.8,2.7-7.5,3.3c-2.6,0.6-5.3,0.6-7.9,0.2c-2.6-0.5-5.1-1.4-7.4-2.8c-2.3-1.5-4.3-3.3-5.9-5.6s-2.7-4.8-3.3-7.5
	c-0.6-2.6-0.6-5.3-0.2-7.9c0.5-2.6,1.4-5.1,2.8-7.4c1.5-2.3,3.3-4.3,5.6-5.9s4.8-2.7,7.5-3.3c2.6-0.6,5.3-0.6,7.9-0.2
	c2.6,0.5,5.1,1.4,7.4,2.8c2.3,1.5,4.3,3.3,5.9,5.6c1.6,2.3,2.7,4.8,3.3,7.5c0.6,2.6,0.6,5.3,0.2,7.9C52.6,32.4,51.7,34.8,50.3,37.1z
	"/>
</svg>
