<?xml version="1.0" encoding="utf-8"?>
<!-- Generator: Adobe Illustrator 24.3.0, SVG Export Plug-In . SVG Version: 6.00 Build 0)  -->
<svg version="1.1" id="Layer_1" xmlns="http://www.w3.org/2000/svg" xmlns:xlink="http://www.w3.org/1999/xlink" x="0px" y="0px"
	 viewBox="0 0 75 75" style="enable-background:new 0 0 75 75;" xml:space="preserve">
<style type="text/css">
	.st0{fill:#F8FDFF;}
</style>
<g>
	<path class="st0" d="M58.6,8.4c4.7,3.3,8.4,7.6,11.2,12.8c2.7,5.2,4.1,10.8,4.1,16.8c0,6.6-1.6,12.6-4.9,18.2
		c-3.3,5.6-7.7,10-13.2,13.3c-5.5,3.3-11.6,4.9-18.2,4.9s-12.7-1.6-18.3-4.9c-5.6-3.3-10-7.7-13.3-13.2c-3.3-5.5-4.9-11.6-4.9-18.3
		c0-6,1.4-11.6,4.1-16.7c2.7-5.2,6.5-9.5,11.2-12.9c0.9-0.6,1.8-0.8,2.9-0.5c1,0.2,1.8,0.8,2.3,1.7l2.3,4.1c0.4,0.8,0.5,1.6,0.3,2.5
		c-0.2,0.9-0.6,1.6-1.3,2.1c-3.1,2.3-5.6,5.2-7.3,8.7s-2.6,7.1-2.6,11.2c0,4.4,1.1,8.5,3.3,12.3c2.2,3.8,5.2,6.8,9,9
		c3.8,2.2,7.9,3.3,12.3,3.3c4.5,0,8.6-1.1,12.4-3.3s6.8-5.2,9-9s3.3-8,3.3-12.5c0-3.8-0.9-7.5-2.6-10.9c-1.8-3.5-4.2-6.4-7.3-8.7
		c-0.7-0.5-1.1-1.2-1.3-2.1c-0.2-0.9-0.1-1.7,0.3-2.5l2.3-4.1c0.5-0.9,1.2-1.4,2.3-1.7S57.8,7.8,58.6,8.4z M43.4,39.3V4
		c0-1-0.3-1.8-1-2.5c-0.7-0.7-1.5-1-2.5-1h-4.7c-1,0-1.8,0.3-2.5,1c-0.7,0.7-1,1.5-1,2.5v35.2c0,1,0.3,1.8,1,2.5
		c0.7,0.7,1.5,1,2.5,1h4.7c1,0,1.8-0.3,2.5-1C43,41.1,43.4,40.2,43.4,39.3z"/>
</g>
</svg>
