<?xml version="1.0" encoding="utf-8"?>
<!-- Generator: Adobe Illustrator 24.3.0, SVG Export Plug-In . SVG Version: 6.00 Build 0)  -->
<svg version="1.1" id="Layer_1" xmlns="http://www.w3.org/2000/svg" xmlns:xlink="http://www.w3.org/1999/xlink" x="0px" y="0px"
	 viewBox="0 0 75 75" style="enable-background:new 0 0 75 75;" xml:space="preserve">
<style type="text/css">
	.st0{fill:#FFFFFF;}
</style>
<g>
	<path class="st0" d="M65.2,25.3V7.4c0-3.1-3.5-5-6.1-3.2L44.1,14.7c-5.5,3.9-12.1,6-18.9,6h-17c-4.3,0-7.8,3.5-7.8,7.8v13.7
		c0,4.3,3.5,7.7,7.7,7.7h4l3.4,19.5c0.2,1.2,1.3,2.1,2.5,2.1H26c1.6,0,2.8-1.4,2.5-3l-3.3-18.6c6.8,0,13.3,2.1,18.9,6l14.9,10.5
		c2.6,1.8,6.1,0,6.1-3.2V45.2c5.2-0.4,9.3-4.7,9.3-10C74.5,30,70.4,25.7,65.2,25.3z"/>
</g>
</svg>
