<?xml version="1.0" encoding="utf-8"?>
<!-- Generator: Adobe Illustrator 26.5.0, SVG Export Plug-In . SVG Version: 6.00 Build 0)  -->
<svg version="1.1" id="Layer_1" xmlns="http://www.w3.org/2000/svg" xmlns:xlink="http://www.w3.org/1999/xlink" x="0px" y="0px"
	 viewBox="0 0 198 150" style="enable-background:new 0 0 198 150;" xml:space="preserve">
<style type="text/css">
	.st0{fill:#FFFFFF;}
</style>
<g transform="translate(1, 1)">
	<path vector-effect="non-scaling-stroke" class="st0" d="M129.07,100.09c-6.05,1.09-9.35,5.44-9.35,13.32s4.12,13.32,10.73,13.32
		c3.02,0,5.77-1.09,11.55-3.8v6.52c-6.88,2.99-11,4.08-16.5,4.08c-6.05,0-10.18-1.63-13.75-5.16c-3.57-3.53-5.23-8.15-5.23-13.32
		c0-11.41,8.52-19.02,21.18-19.02c8.25,0,14.02,3.8,14.02,9.24c0,3.53-2.75,5.98-6.6,5.98c-1.93,0-3.57-0.54-5.77-1.63v-9.51H129.07
		z M98.55,115.31c5.5-6.79,7.43-9.78,7.43-13.04c0-3.26-2.75-5.98-6.32-5.98c-2.2,0-4.12,1.09-5.23,2.17v14.13l-9.07,11.96V97.37
		h-8.53l-14.58,23.1V97.1H57.3l-12.93,3.26v3.26l7.15,0.82v28.81h9.07l13.75-22.28v22.28h10.18L98.55,115.31z M16.88,104.44
		c2.2-0.27,3.02-0.27,4.12-0.27c6.05,0,9.35,3.8,9.35,11.41c0,8.7-3.85,13.32-11.27,13.32c-0.55,0-1.1,0-1.92,0v-24.46H16.88z
		 M16.88,132.7c2.48,0.27,4.67,0.27,6.05,0.27c12.38,0,20.08-7.88,20.08-19.3c0-10.06-5.78-17.12-13.75-17.12
		c-3.3,0-5.78,0.82-12.38,4.62v-4.89H13.3L-1,100.63v3.53h6.05v40.22l-5.5,1.36v3.26h23.38v-3.26l-6.05-1.36V132.7z M85.35,75.63
		h35.75v-8.7H85.35C85.35,66.93,85.35,75.63,85.35,75.63z M197,47.09v19.84h-75.9V-1.01h38.77v7.88h7.98v11.69h18.98v28.54H197z
		 M167.85,21.55v25.82h16.23V21.55H167.85z M123.85,47.09h18.7v-7.07h-18.7V47.09z M123.85,18.56h33V9.59h-33V18.56z M123.85,21.55
		v15.76h21.45v9.78h11.55V21.55H123.85z M123.85,63.94h18.7V49.81h-18.7V63.94z M145.3,63.94h11.55V49.81H145.3V63.94z
		 M159.88,63.94h5.23V49.81h-5.23V63.94z M165.1,47.09V21.55h-5.23v25.82h5.23V47.09z M159.88,9.59v8.97h5.23V9.59H159.88z
		 M123.85,6.87h33V1.71h-33V6.87z M184.08,63.94V49.81h-16.23v14.13C167.85,63.94,184.08,63.94,184.08,63.94z M194.25,49.81h-7.15
		v14.13h7.15V49.81z"/>
</g>
</svg>
